<svg width="67" height="18" viewBox="0 0 67 18" fill="none" xmlns="http://www.w3.org/2000/svg">
<path d="M16.687 15.8744C15.3101 13.6595 13.942 11.4358 12.5472 9.22092C12.3237 8.87262 12.3147 8.62255 12.5472 8.27425C13.9152 6.07728 15.2564 3.86244 16.6155 1.66546C17.1788 0.745588 16.9374 0.120432 15.8823 0.0757778C12.8691 -0.0581842 9.86484 0.0132622 6.85164 0.0311238C6.15422 0.0311238 5.6714 0.397287 5.34057 0.933135C3.85632 3.33552 2.40784 5.75577 0.923594 8.14922C0.637474 8.60469 0.691122 8.98872 0.941477 9.39953C2.3989 11.7573 3.92785 14.0793 5.32269 16.4727C5.68928 17.0979 6.20787 17.4373 7.01258 17.4015C8.40741 17.339 9.81119 17.3837 11.206 17.3837V17.3658C12.7707 17.3658 14.3355 17.3926 15.9002 17.3658C16.8658 17.3479 17.1967 16.6781 16.6959 15.8744H16.687ZM6.77117 14.3383C6.52081 14.7402 6.25258 14.8027 5.9754 14.3651C4.86668 12.57 3.75797 10.7659 2.64031 8.97085C2.49725 8.74758 2.58667 8.56897 2.7029 8.38142C3.95468 6.33627 5.20645 4.29112 6.45822 2.24596C6.6907 1.87087 7.02152 1.65653 7.52223 1.67439C8.56836 1.71011 9.60554 1.68332 10.6517 1.68332C11.671 1.68332 12.6903 1.68332 13.7096 1.68332C14.4875 1.69225 14.5769 1.84408 14.1745 2.48709C13.191 4.06785 12.1896 5.63073 11.206 7.20256C9.99002 9.1584 8.78295 11.1142 7.56694 13.0701C7.30764 13.4898 7.0394 13.9007 6.77117 14.3204V14.3383ZM7.95141 15.6511C8.69354 14.4365 9.35519 13.3559 10.0079 12.2753C10.3119 11.7751 10.6338 11.2839 10.9378 10.7749C11.1077 10.4891 11.3044 10.373 11.51 10.7034C12.4489 12.1949 13.3787 13.6863 14.3086 15.1867C14.3712 15.2939 14.3712 15.4546 14.407 15.6422H7.95141V15.6511Z" fill="#CD2650"/>
<path d="M22.1406 14.3202V5.83594H23.4282V9.89052H23.5355L27.1209 5.83594H28.7482L25.2969 9.65832L28.7571 14.3291H27.2014L24.4385 10.5335L23.4282 11.6856V14.3291H22.1406V14.3202Z" fill="#010101"/>
<path d="M32.1447 14.4451C31.5098 14.4451 30.9734 14.3112 30.5174 14.0433C30.0614 13.7753 29.7126 13.3913 29.4623 12.9001C29.2119 12.4089 29.0957 11.8373 29.0957 11.1765C29.0957 10.5156 29.2209 9.95295 29.4623 9.45282C29.7126 8.9527 30.0524 8.56867 30.4995 8.29182C30.9465 8.01496 31.4651 7.87207 32.0553 7.87207C32.4129 7.87207 32.7706 7.93459 33.1103 8.05069C33.4501 8.16679 33.7541 8.35433 34.0223 8.61333C34.2906 8.86339 34.5052 9.19383 34.6572 9.60465C34.8092 10.0065 34.8896 10.4977 34.8896 11.0782V11.5158H29.7931V10.587H33.6647C33.6647 10.2566 33.6021 9.97081 33.468 9.72075C33.3339 9.47068 33.1461 9.26528 32.9047 9.12238C32.6633 8.97949 32.3861 8.89911 32.0553 8.89911C31.7065 8.89911 31.4025 8.98842 31.1432 9.15811C30.884 9.32779 30.6783 9.55106 30.5442 9.81898C30.4011 10.0869 30.3296 10.3906 30.3296 10.7031V11.4265C30.3296 11.8552 30.4011 12.2124 30.5531 12.5161C30.7051 12.8108 30.9197 13.043 31.188 13.1948C31.4651 13.3467 31.7781 13.427 32.1447 13.427C32.3771 13.427 32.6007 13.3913 32.7884 13.3288C32.9851 13.2573 33.155 13.1591 33.2981 13.0251C33.4411 12.8912 33.5484 12.7215 33.62 12.525L34.8002 12.7394C34.7019 13.0877 34.5409 13.3824 34.2906 13.6414C34.0402 13.9004 33.7452 14.0968 33.3786 14.2397C33.012 14.3826 32.5917 14.4541 32.1268 14.4541L32.1447 14.4451Z" fill="#010101"/>
<path d="M39.0568 14.4451C38.4219 14.4451 37.8855 14.3112 37.4295 14.0433C36.9735 13.7753 36.6248 13.3913 36.3744 12.9001C36.124 12.4089 36.0078 11.8373 36.0078 11.1765C36.0078 10.5156 36.133 9.95295 36.3744 9.45282C36.6248 8.9527 36.9645 8.56867 37.4116 8.29182C37.8586 8.01496 38.3772 7.87207 38.9674 7.87207C39.325 7.87207 39.6827 7.93459 40.0224 8.05069C40.3622 8.16679 40.6662 8.35433 40.9344 8.61333C41.2027 8.86339 41.4173 9.19383 41.5693 9.60465C41.7213 10.0065 41.8017 10.4977 41.8017 11.0782V11.5158H36.7052V10.587H40.5768C40.5768 10.2566 40.5142 9.97081 40.3801 9.72075C40.246 9.47068 40.0582 9.26528 39.8168 9.12238C39.5754 8.97949 39.2982 8.89911 38.9674 8.89911C38.6187 8.89911 38.3147 8.98842 38.0554 9.15811C37.7961 9.32779 37.5904 9.55106 37.4563 9.81898C37.3132 10.0869 37.2417 10.3906 37.2417 10.7031V11.4265C37.2417 11.8552 37.3132 12.2124 37.4652 12.5161C37.6172 12.8108 37.8318 13.043 38.1001 13.1948C38.3772 13.3467 38.6902 13.427 39.0568 13.427C39.2892 13.427 39.5128 13.3913 39.7005 13.3288C39.8973 13.2573 40.0671 13.1591 40.2102 13.0251C40.3533 12.8912 40.4606 12.7215 40.5321 12.525L41.7123 12.7394C41.614 13.0877 41.453 13.3824 41.2027 13.6414C40.9523 13.9004 40.6573 14.0968 40.2907 14.2397C39.9241 14.3826 39.5038 14.4541 39.0389 14.4541L39.0568 14.4451Z" fill="#010101"/>
<path d="M43.1964 16.7046V7.95245H44.4125V8.98842H44.5197C44.5913 8.85446 44.6986 8.70264 44.8327 8.52402C44.9668 8.35433 45.1546 8.19358 45.4049 8.06855C45.6463 7.93459 45.9682 7.87207 46.3616 7.87207C46.8802 7.87207 47.3452 8.00603 47.7475 8.26503C48.1499 8.52402 48.4718 8.89911 48.7042 9.39031C48.9367 9.8815 49.053 10.4709 49.053 11.1586C49.053 11.8463 48.9367 12.4357 48.7042 12.9269C48.4718 13.4181 48.1588 13.7932 47.7565 14.0611C47.3541 14.329 46.8892 14.4541 46.3706 14.4541C45.9772 14.4541 45.6642 14.3916 45.4139 14.2576C45.1635 14.1236 44.9757 13.9718 44.8327 13.8021C44.6896 13.6324 44.5823 13.4717 44.5108 13.3377H44.4393V16.7136H43.1875L43.1964 16.7046ZM44.4214 11.1318C44.4214 11.5784 44.484 11.9713 44.6181 12.3107C44.7522 12.65 44.94 12.909 45.1903 13.0966C45.4407 13.2841 45.7447 13.3824 46.1023 13.3824C46.46 13.3824 46.7908 13.2841 47.0412 13.0877C47.2915 12.8912 47.4793 12.6233 47.6134 12.2839C47.7386 11.9445 47.8101 11.5605 47.8101 11.1318C47.8101 10.7031 47.7475 10.337 47.6224 9.9976C47.4972 9.66716 47.3094 9.39924 47.0501 9.20276C46.7908 9.00628 46.4868 8.91697 46.1113 8.91697C45.7358 8.91697 45.4407 9.00628 45.1993 9.19383C44.9489 9.38138 44.7612 9.64037 44.636 9.97081C44.5108 10.3012 44.4482 10.6853 44.4482 11.1318H44.4214Z" fill="#010101"/>
<path d="M53.2208 14.4451C52.586 14.4451 52.0495 14.3112 51.5935 14.0433C51.1375 13.7753 50.7888 13.3913 50.5385 12.9001C50.2881 12.4089 50.1719 11.8373 50.1719 11.1765C50.1719 10.5156 50.297 9.95295 50.5385 9.45282C50.7888 8.9527 51.1286 8.56867 51.5757 8.29182C52.0227 8.01496 52.5413 7.87207 53.1314 7.87207C53.4891 7.87207 53.8467 7.93459 54.1865 8.05069C54.5263 8.16679 54.8303 8.35433 55.0985 8.61333C55.3667 8.86339 55.5813 9.19383 55.7333 9.60465C55.8853 10.0065 55.9658 10.4977 55.9658 11.0782V11.5158H50.8693V10.587H54.7408C54.7408 10.2566 54.6783 9.97081 54.5441 9.72075C54.41 9.47068 54.2223 9.26528 53.9808 9.12238C53.7394 8.97949 53.4623 8.89911 53.1314 8.89911C52.7827 8.89911 52.4787 8.98842 52.2194 9.15811C51.9601 9.32779 51.7545 9.55106 51.6204 9.81898C51.4773 10.0869 51.4058 10.3906 51.4058 10.7031V11.4265C51.4058 11.8552 51.4773 12.2124 51.6293 12.5161C51.7813 12.8108 51.9959 13.043 52.2641 13.1948C52.5413 13.3467 52.8542 13.427 53.2208 13.427C53.4533 13.427 53.6768 13.3913 53.8646 13.3288C54.0613 13.2573 54.2312 13.1591 54.3743 13.0251C54.5173 12.8912 54.6246 12.7215 54.6961 12.525L55.8764 12.7394C55.778 13.0877 55.6171 13.3824 55.3667 13.6414C55.1164 13.9004 54.8213 14.0968 54.4547 14.2397C54.0881 14.3826 53.6679 14.4541 53.203 14.4541L53.2208 14.4451Z" fill="#010101"/>
<path d="M57.3605 14.3204V7.95273H58.5676V8.96191H58.6302C58.7464 8.62254 58.952 8.34569 59.2471 8.14921C59.5422 7.95273 59.8819 7.85449 60.2575 7.85449C60.3379 7.85449 60.4273 7.85449 60.5346 7.85449C60.6419 7.85449 60.7224 7.86342 60.785 7.87235V9.06015C60.7313 9.04229 60.6419 9.03336 60.5168 9.0155C60.3916 8.99763 60.2575 8.9887 60.1323 8.9887C59.8372 8.9887 59.5779 9.05122 59.3455 9.17625C59.113 9.30128 58.9342 9.47097 58.8 9.68531C58.6659 9.89965 58.6033 10.1497 58.6033 10.4266V14.3115H57.3516L57.3605 14.3204Z" fill="#010101"/>
<path d="M66.686 9.50627L65.5505 9.70274C65.5058 9.55985 65.4253 9.42589 65.327 9.29193C65.2286 9.15796 65.0856 9.05973 64.9157 8.97042C64.7458 8.89004 64.5312 8.84539 64.2719 8.84539C63.9143 8.84539 63.6192 8.92576 63.3867 9.07759C63.1543 9.22941 63.0291 9.43482 63.0291 9.68488C63.0291 9.89922 63.1096 10.0689 63.2705 10.2029C63.4314 10.3368 63.6818 10.4351 64.0394 10.5244L65.0587 10.7566C65.6489 10.8905 66.087 11.1049 66.382 11.3817C66.6682 11.6675 66.8202 12.0337 66.8202 12.4802C66.8202 12.8642 66.7129 13.2036 66.4893 13.4983C66.2658 13.793 65.9618 14.0252 65.5684 14.1949C65.175 14.3646 64.719 14.445 64.2004 14.445C63.4851 14.445 62.895 14.2932 62.439 13.9895C61.983 13.6859 61.7058 13.2483 61.6074 12.6856L62.8145 12.507C62.886 12.8196 63.047 13.0518 63.2794 13.2125C63.5119 13.3733 63.8159 13.4537 64.1914 13.4537C64.6027 13.4537 64.9246 13.3644 65.175 13.1947C65.4164 13.025 65.5416 12.8196 65.5416 12.5695C65.5416 12.3731 65.47 12.2034 65.318 12.0694C65.166 11.9354 64.9425 11.8283 64.6385 11.7658L63.5566 11.5336C62.9575 11.3996 62.5194 11.1853 62.2333 10.8905C61.9472 10.5958 61.8041 10.2207 61.8041 9.76526C61.8041 9.39016 61.9114 9.05973 62.1171 8.78287C62.3317 8.49708 62.6178 8.28275 62.9933 8.12199C63.3688 7.96124 63.7891 7.88086 64.2719 7.88086C64.9693 7.88086 65.5147 8.03268 65.9082 8.3274C66.3105 8.62212 66.5698 9.024 66.695 9.5152L66.686 9.50627Z" fill="#010101"/>
<path d="M46.2383 5.22873V1.03125H46.8731V2.85313H48.9832V1.03125H49.627V5.22873H48.9832V3.39791H46.8731V5.22873H46.2383Z" fill="#010101"/>
<path d="M51.8358 5.29099C51.5407 5.29099 51.2815 5.21955 51.0579 5.08558C50.8344 4.95162 50.6645 4.76407 50.5393 4.51401C50.4142 4.26395 50.3516 3.98709 50.3516 3.66559C50.3516 3.34408 50.4142 3.05829 50.5393 2.80823C50.6645 2.5671 50.8344 2.37062 51.0579 2.23666C51.2815 2.1027 51.5407 2.03125 51.8358 2.03125C52.1309 2.03125 52.3902 2.1027 52.6137 2.23666C52.8372 2.37062 53.0071 2.55817 53.1323 2.80823C53.2575 3.04936 53.3201 3.33515 53.3201 3.66559C53.3201 3.99603 53.2575 4.27288 53.1323 4.51401C53.0071 4.75514 52.8372 4.94269 52.6137 5.08558C52.3902 5.21955 52.1309 5.29099 51.8358 5.29099ZM51.8358 4.77301C52.0325 4.77301 52.1845 4.71942 52.3186 4.62118C52.4438 4.52294 52.5422 4.38898 52.5958 4.2193C52.6495 4.04961 52.6852 3.86206 52.6852 3.66559C52.6852 3.46911 52.6584 3.28156 52.5958 3.11188C52.5332 2.94219 52.4438 2.80823 52.3186 2.70106C52.1935 2.60282 52.0325 2.54924 51.8358 2.54924C51.6391 2.54924 51.4782 2.60282 51.353 2.70106C51.2278 2.7993 51.1295 2.94219 51.0669 3.11188C51.0043 3.28156 50.9774 3.46911 50.9774 3.66559C50.9774 3.86206 51.0043 4.04961 51.0669 4.2193C51.1295 4.38898 51.2189 4.52294 51.353 4.62118C51.4782 4.71942 51.6391 4.77301 51.8358 4.77301Z" fill="#010101"/>
<path d="M54.6169 1.03125V5.22873H54V1.03125H54.6169Z" fill="#010101"/>
<path d="M55.7508 1.59365C55.6435 1.59365 55.5541 1.55793 55.4737 1.48648C55.3932 1.41504 55.3574 1.32573 55.3574 1.22749C55.3574 1.12925 55.3932 1.03994 55.4737 0.968498C55.5541 0.897051 55.6435 0.861328 55.7508 0.861328C55.8581 0.861328 55.9475 0.897051 56.028 0.968498C56.1085 1.03994 56.1443 1.12925 56.1443 1.22749C56.1443 1.32573 56.1085 1.41504 56.028 1.48648C55.9475 1.55793 55.8581 1.59365 55.7508 1.59365ZM55.4379 5.21956V2.07592H56.0548V5.21956H55.4379Z" fill="#010101"/>
<path d="M58.0772 5.28259C57.8179 5.28259 57.5944 5.22008 57.3977 5.08612C57.201 4.95215 57.04 4.77354 56.9238 4.52348C56.8076 4.28234 56.7539 3.98763 56.7539 3.64826C56.7539 3.30889 56.8076 3.01417 56.9238 2.77304C57.04 2.53191 57.192 2.34436 57.3977 2.21933C57.5944 2.0943 57.8269 2.02285 58.0772 2.02285C58.2739 2.02285 58.4349 2.05858 58.5511 2.12109C58.6673 2.18361 58.7657 2.26398 58.8283 2.34436C58.8909 2.42474 58.9445 2.50512 58.9803 2.56763H59.016V1.01367H59.633V5.21115H59.0339V4.71995H58.9803C58.9445 4.78247 58.8909 4.86285 58.8193 4.95215C58.7478 5.04146 58.6584 5.11291 58.5332 5.17542C58.408 5.23794 58.256 5.27366 58.0593 5.27366L58.0772 5.28259ZM58.2113 4.76461C58.3902 4.76461 58.5422 4.71995 58.6584 4.62171C58.7836 4.53241 58.873 4.39844 58.9356 4.22876C58.9982 4.05907 59.0339 3.87153 59.0339 3.64826C59.0339 3.42499 58.9982 3.23744 58.9356 3.07669C58.873 2.91593 58.7836 2.78197 58.6584 2.69266C58.5332 2.60335 58.3812 2.5587 58.2024 2.5587C58.0236 2.5587 57.8626 2.60335 57.7374 2.70159C57.6123 2.79983 57.5229 2.92486 57.4603 3.09455C57.3977 3.2553 57.3709 3.44285 57.3709 3.65719C57.3709 3.87153 57.4066 4.05907 57.4692 4.22876C57.5318 4.39844 57.6301 4.53241 57.7464 4.63065C57.8716 4.72888 58.0236 4.77354 58.2113 4.77354V4.76461Z" fill="#010101"/>
<path d="M61.4479 5.29099C61.2512 5.29099 61.0635 5.25527 60.9025 5.18382C60.7416 5.11238 60.6164 5.00521 60.5181 4.86231C60.4197 4.71942 60.375 4.54974 60.375 4.34433C60.375 4.16571 60.4108 4.02282 60.4823 3.90672C60.5538 3.79062 60.6432 3.70131 60.7595 3.63879C60.8757 3.57628 61.0098 3.52269 61.1529 3.48697C61.296 3.45125 61.4479 3.42445 61.591 3.40659C61.7788 3.38873 61.9308 3.37087 62.056 3.35301C62.1722 3.33515 62.2616 3.31729 62.3152 3.28156C62.3689 3.24584 62.3957 3.19225 62.3957 3.12081V3.10295C62.3957 2.92433 62.3421 2.78144 62.2437 2.6832C62.1454 2.58496 61.9934 2.53137 61.7967 2.53137C61.6 2.53137 61.4301 2.57603 61.3049 2.66534C61.1887 2.75464 61.1082 2.85288 61.0545 2.96898L60.4734 2.83502C60.5449 2.64748 60.6432 2.48672 60.7774 2.37062C60.9115 2.25452 61.0635 2.16521 61.2334 2.11163C61.4032 2.05804 61.591 2.03125 61.7788 2.03125C61.904 2.03125 62.0381 2.04911 62.1811 2.0759C62.3242 2.1027 62.4583 2.15628 62.5835 2.23666C62.7087 2.31704 62.807 2.42421 62.8875 2.5671C62.968 2.70999 63.0037 2.89754 63.0037 3.12974V5.21954H62.4047V4.79087H62.3778C62.3421 4.87124 62.2795 4.95162 62.199 5.02307C62.1185 5.09451 62.0202 5.16596 61.895 5.21061C61.7698 5.2642 61.6178 5.28206 61.4479 5.28206V5.29099ZM61.5821 4.7998C61.752 4.7998 61.895 4.76407 62.0202 4.70156C62.1454 4.63904 62.2348 4.54974 62.2974 4.44257C62.36 4.3354 62.3957 4.2193 62.3957 4.09426V3.69238C62.3957 3.69238 62.3331 3.73703 62.2705 3.75489C62.208 3.77276 62.1364 3.79062 62.056 3.79955C61.9755 3.80848 61.895 3.82634 61.8235 3.83527C61.752 3.8442 61.6804 3.85313 61.6357 3.86206C61.5195 3.87993 61.4032 3.90672 61.3049 3.93351C61.2065 3.9603 61.1261 4.02282 61.0724 4.08533C61.0098 4.14785 60.983 4.23716 60.983 4.34433C60.983 4.49615 61.0367 4.61225 61.1529 4.6837C61.2691 4.76407 61.4122 4.7998 61.5821 4.7998Z" fill="#010101"/>
<path d="M64.1036 6.40747C64.0142 6.40747 63.9248 6.40747 63.8532 6.38961C63.7817 6.37174 63.7191 6.36281 63.6833 6.34495L63.8353 5.84483C63.9516 5.87162 64.0499 5.88948 64.1393 5.88055C64.2288 5.87162 64.3092 5.84483 64.3718 5.78231C64.4344 5.7198 64.497 5.62156 64.5506 5.47866L64.6311 5.27326L63.4688 2.08496H64.1304L64.9351 4.52307H64.9709L65.7756 2.08496H66.4372L65.1318 5.64835C65.0692 5.8091 64.9977 5.952 64.8993 6.0681C64.8099 6.1842 64.6937 6.26458 64.5685 6.32709C64.4433 6.38068 64.2913 6.4164 64.1215 6.4164L64.1036 6.40747Z" fill="#010101"/>
</svg>
