<svg width="25" height="25" viewBox="0 0 25 25" fill="none" xmlns="http://www.w3.org/2000/svg">
<path d="M16.1572 13.1095H13.1096V16.1571C13.1096 16.4924 12.8353 16.7667 12.5001 16.7667C12.1648 16.7667 11.8905 16.4924 11.8905 16.1571V13.1095H8.84292C8.50768 13.1095 8.2334 12.8352 8.2334 12.5C8.2334 12.1648 8.50768 11.8905 8.84292 11.8905H11.8905V8.84285C11.8905 8.50761 12.1648 8.23332 12.5001 8.23332C12.8353 8.23332 13.1096 8.50761 13.1096 8.84285V11.8905H16.1572C16.4925 11.8905 16.7667 12.1648 16.7667 12.5C16.7667 12.8352 16.4925 13.1095 16.1572 13.1095Z" fill="black"/>
<rect x="0.514583" y="0.514583" width="23.9708" height="23.9708" rx="11.9854" stroke="black" stroke-width="1.02917"/>
</svg>
