<svg width="24" height="27" viewBox="0 0 24 27" fill="none" xmlns="http://www.w3.org/2000/svg">
<path d="M6.52605 17.3289C6.20784 17.6687 6.03397 18.1188 6.04107 18.5843C6.04816 19.0498 6.23567 19.4943 6.56409 19.8243C6.89251 20.1542 7.33618 20.3438 7.80164 20.3531C8.26709 20.3624 8.71798 20.1907 9.05931 19.8741L21.7028 7.37696C22.0417 7.04568 22.3117 6.65064 22.4973 6.21458C22.6828 5.77853 22.7803 5.31007 22.7841 4.83619C22.7879 4.36231 22.6979 3.89236 22.5193 3.4534C22.3406 3.01445 22.077 2.61516 21.7434 2.27853C21.4099 1.94189 21.013 1.67457 20.5757 1.49194C20.1384 1.30931 19.6693 1.21499 19.1954 1.2144C18.7215 1.21382 18.2521 1.30698 17.8144 1.48853C17.3766 1.67008 16.9791 1.93642 16.6447 2.27223L2.80341 15.9683C2.29306 16.4666 1.88668 17.0612 1.60784 17.7177C1.32899 18.3742 1.18323 19.0795 1.17899 19.7927C1.17476 20.506 1.31213 21.213 1.58316 21.8727C1.85418 22.5325 2.25347 23.1319 2.75787 23.6362C3.26226 24.1405 3.86175 24.5397 4.52157 24.8106C5.18138 25.0815 5.88841 25.2188 6.60167 25.2144C7.31493 25.2101 8.02023 25.0642 8.6767 24.7853C9.33317 24.5063 9.92774 24.0999 10.4259 23.5895L21.1818 12.7153L22.0346 13.5573L11.2776 24.4327C10.6674 25.0512 9.94095 25.5429 9.13999 25.8795C8.33903 26.2161 7.4794 26.391 6.61058 26.394C5.74177 26.397 4.88094 26.2281 4.07766 25.8971C3.27438 25.5661 2.54451 25.0794 1.93008 24.4652C1.31566 23.8509 0.828807 23.1212 0.497566 22.318C0.166325 21.5148 -0.00276423 20.6541 3.41747e-05 19.7853C0.00283258 18.9165 0.177463 18.0568 0.513871 17.2558C0.85028 16.4548 1.34182 15.7282 1.96019 15.1179L15.8027 1.42184C16.248 0.971619 16.7782 0.614146 17.3625 0.370093C17.9469 0.126041 18.5738 0.000251778 19.2071 3.77581e-07C19.8403 -0.000251023 20.4674 0.12504 21.0519 0.368628C21.6364 0.612217 22.1669 0.969269 22.6126 1.41914C23.0583 1.86901 23.4103 2.40277 23.6484 2.98955C23.8865 3.57633 24.006 4.2045 23.9998 4.83772C23.9936 5.47094 23.8619 6.09665 23.6124 6.67867C23.3629 7.26069 23.0005 7.78747 22.5461 8.22855L9.90253 20.7257C9.33892 21.2825 8.57763 21.5932 7.78537 21.5899C6.99311 21.5865 6.23447 21.2693 5.67561 20.7078C5.11674 20.1462 4.8032 19.3861 4.80365 18.5939C4.80411 17.8016 5.11852 17.0418 5.67803 16.4809L15.2601 6.89907L16.1069 7.74587L6.52605 17.3289Z" fill="black"/>
</svg>
