<svg width="17" height="16" viewBox="0 0 17 16" fill="none" xmlns="http://www.w3.org/2000/svg">
<path d="M11.1133 3.29004C13.6149 3.29004 14.8657 3.29004 15.6428 3.74917C16.42 4.2083 16.42 4.94726 16.42 6.42517V8.77653V11.1279C16.42 12.6058 16.42 13.3447 15.6428 13.8039C14.8657 14.263 13.6149 14.263 11.1133 14.263H8.46H5.80666C3.30508 14.263 2.05428 14.263 1.27715 13.8039C0.5 13.3447 0.5 12.6058 0.5 11.1279V8.77653V6.42517C0.5 4.94726 0.5 4.2083 1.27715 3.74917C2.05428 3.29004 3.30508 3.29004 5.80666 3.29004H8.46H11.1133Z" stroke="black" stroke-linejoin="round"/>
<path d="M1.77368 11.2363H15.1465" stroke="black" stroke-linecap="round"/>
<path d="M1.77368 6.69531H15.1465" stroke="black" stroke-linecap="round"/>
<path d="M3.04883 14.2627V15.0195" stroke="black" stroke-linecap="round" stroke-linejoin="round"/>
<path d="M4.32031 3.2898V2.53304C4.32031 1.69715 5.55577 1.01953 7.07978 1.01953H9.83924C11.3633 1.01953 12.5987 1.69715 12.5987 2.53304V3.2898" stroke="black" stroke-linecap="round" stroke-linejoin="round"/>
<path d="M13.8728 14.2627V15.0195" stroke="black" stroke-linecap="round" stroke-linejoin="round"/>
</svg>
