<svg width="13" height="13" viewBox="0 0 13 13" fill="none" xmlns="http://www.w3.org/2000/svg">
<path d="M6.5 13C5.60083 13 4.75583 12.8294 3.965 12.4881C3.17417 12.1469 2.48625 11.6837 1.90125 11.0987C1.31625 10.5138 0.853125 9.82583 0.511875 9.035C0.170625 8.24417 0 7.39917 0 6.5C0 5.60083 0.170625 4.75583 0.511875 3.965C0.853125 3.17417 1.31625 2.48625 1.90125 1.90125C2.48625 1.31625 3.17417 0.853125 3.965 0.511875C4.75583 0.170625 5.60083 0 6.5 0C7.39917 0 8.24417 0.170625 9.035 0.511875C9.82583 0.853125 10.5138 1.31625 11.0987 1.90125C11.6837 2.48625 12.1469 3.17417 12.4881 3.965C12.8294 4.75583 13 5.60083 13 6.5C13 7.39917 12.8294 8.24417 12.4881 9.035C12.1469 9.82583 11.6837 10.5138 11.0987 11.0987C10.5138 11.6837 9.82583 12.1469 9.035 12.4881C8.24417 12.8294 7.39917 13 6.5 13ZM6.5 11.7C7.085 11.7 7.64833 11.6052 8.19 11.4156C8.73167 11.226 9.23 10.9525 9.685 10.595L2.405 3.315C2.0475 3.77 1.77396 4.26833 1.58437 4.81C1.39479 5.35167 1.3 5.915 1.3 6.5C1.3 7.95167 1.80375 9.18125 2.81125 10.1887C3.81875 11.1962 5.04833 11.7 6.5 11.7ZM10.595 9.685C10.9525 9.23 11.226 8.73167 11.4156 8.19C11.6052 7.64833 11.7 7.085 11.7 6.5C11.7 5.04833 11.1962 3.81875 10.1887 2.81125C9.18125 1.80375 7.95167 1.3 6.5 1.3C5.915 1.3 5.35167 1.39479 4.81 1.58437C4.26833 1.77396 3.77 2.0475 3.315 2.405L10.595 9.685Z" fill="black"/>
</svg>
