<svg width="18" height="18" viewBox="0 0 18 18" fill="none" xmlns="http://www.w3.org/2000/svg">
<path fill-rule="evenodd" clip-rule="evenodd" d="M8.99935 2.46777C5.38074 2.46777 2.44727 5.40124 2.44727 9.01986C2.44727 12.6384 5.38074 15.5719 8.99935 15.5719C12.6179 15.5719 15.5514 12.6384 15.5514 9.01986C15.5514 5.40124 12.6179 2.46777 8.99935 2.46777ZM1.38477 9.01986C1.38477 4.81444 4.79393 1.40527 8.99935 1.40527C13.2048 1.40527 16.6139 4.81444 16.6139 9.01986C16.6139 13.2253 13.2048 16.6344 8.99935 16.6344C4.79393 16.6344 1.38477 13.2253 1.38477 9.01986ZM8.99935 5.65527C9.29274 5.65527 9.5306 5.89312 9.5306 6.18652V8.79978L11.1458 10.4151C11.3533 10.6225 11.3533 10.9588 11.1458 11.1663C10.9383 11.3738 10.602 11.3738 10.3946 11.1663L8.62372 9.39548C8.52406 9.29589 8.4681 9.16074 8.4681 9.01986V6.18652C8.4681 5.89312 8.70596 5.65527 8.99935 5.65527Z" fill="#1C274C"/>
</svg>
