<svg width="17" height="17" viewBox="0 0 17 17" fill="none" xmlns="http://www.w3.org/2000/svg">
<path d="M14.5101 14.5101C12.9038 16.1164 10.7717 17 8.5 17C6.22832 17 4.09617 16.1164 2.4899 14.5101C0.883628 12.9038 0 10.7717 0 8.5C0 6.22832 0.883628 4.09617 2.4899 2.4899C4.09617 0.883629 6.22832 0 8.5 0C10.7717 0 12.9038 0.883629 14.5101 2.4899C16.1164 4.09617 17 6.22832 17 8.5C17 10.7717 16.1164 12.9038 14.5101 14.5101ZM13.8268 3.17319C12.403 1.74937 10.5105 0.96591 8.5 0.96591C6.48948 0.96591 4.59701 1.74937 3.17319 3.17319C0.236111 6.11027 0.236111 10.8897 3.17319 13.8268C4.59701 15.2506 6.48948 16.0341 8.5 16.0341C10.5105 16.0341 12.403 15.2506 13.8268 13.8268C16.7639 10.8897 16.7639 6.11027 13.8268 3.17319Z" fill="black"/>
<path d="M12.2757 12.2093C12.1007 12.4003 11.82 12.4003 11.6449 12.2093L8.81822 9.12381L5.99149 12.2093C5.81647 12.4003 5.53578 12.4003 5.36076 12.2093C5.18574 12.0182 5.18574 11.7118 5.36076 11.5208L8.18749 8.43535L5.36076 5.3499C5.18574 5.15886 5.18574 4.85248 5.36076 4.66144C5.44662 4.56772 5.56219 4.51726 5.67447 4.51726C5.78675 4.51726 5.90233 4.56412 5.98818 4.66144L8.81491 7.74689L11.6416 4.66144C11.7275 4.56772 11.8431 4.51726 11.9554 4.51726C12.0709 4.51726 12.1832 4.56412 12.2691 4.66144C12.4441 4.85248 12.4441 5.15886 12.2691 5.3499L9.44895 8.43535L12.2757 11.5208C12.4507 11.7118 12.4507 12.0182 12.2757 12.2093Z" fill="black"/>
</svg>
