<svg width="22" height="22" viewBox="0 0 22 22" fill="none" xmlns="http://www.w3.org/2000/svg">
    <path
        d="M18.7778 18.7778C16.6991 20.8565 13.9398 22 11 22C8.06019 22 5.30093 20.8565 3.22222 18.7778C1.14352 16.6991 0 13.9398 0 11C0 8.06019 1.14352 5.30093 3.22222 3.22222C5.30093 1.14352 8.06019 0 11 0C13.9398 0 16.6991 1.14352 18.7778 3.22222C20.8565 5.30093 22 8.06019 22 11C22 13.9398 20.8565 16.6991 18.7778 18.7778ZM17.8935 4.10648C16.0509 2.26389 13.6019 1.25 11 1.25C8.39815 1.25 5.94907 2.26389 4.10648 4.10648C0.305555 7.90741 0.305555 14.0926 4.10648 17.8935C5.94907 19.7361 8.39815 20.75 11 20.75C13.6019 20.75 16.0509 19.7361 17.8935 17.8935C21.6944 14.0926 21.6944 7.90741 17.8935 4.10648Z"
        fill="black" />
    <path
        d="M15.8876 15.8008C15.6611 16.048 15.2979 16.048 15.0714 15.8008L11.4133 11.8079L7.75515 15.8008C7.52866 16.048 7.16541 16.048 6.93891 15.8008C6.71242 15.5536 6.71242 15.1571 6.93891 14.9099L10.597 10.9169L6.93891 6.924C6.71242 6.67677 6.71242 6.28028 6.93891 6.03305C7.05003 5.91177 7.1996 5.84646 7.3449 5.84646C7.4902 5.84646 7.63977 5.9071 7.75088 6.03305L11.409 10.026L15.0671 6.03305C15.1782 5.91177 15.3278 5.84646 15.4731 5.84646C15.6227 5.84646 15.768 5.9071 15.8791 6.03305C16.1056 6.28028 16.1056 6.67677 15.8791 6.924L12.2295 10.9169L15.8876 14.9099C16.1141 15.1571 16.1141 15.5536 15.8876 15.8008Z"
        fill="black" />
</svg>