<svg xmlns="http://www.w3.org/2000/svg" width="24" height="24" viewBox="0 0 24 24" fill="none">
  <path fill-rule="evenodd" clip-rule="evenodd" d="M23 12C23 17.5228 18.5228 22 13 22C7.47715 22 3 17.5228 3 12C3 6.47715 7.47715 2 13 2C18.5228 2 23 6.47715 23 12ZM9.96963 8.96965C10.2625 8.67676 10.7374 8.67676 11.0303 8.96965L13 10.9393L14.9696 8.96967C15.2625 8.67678 15.7374 8.67678 16.0303 8.96967C16.3232 9.26256 16.3232 9.73744 16.0303 10.0303L14.0606 12L16.0303 13.9696C16.3232 14.2625 16.3232 14.7374 16.0303 15.0303C15.7374 15.3232 15.2625 15.3232 14.9696 15.0303L13 13.0607L11.0303 15.0303C10.7374 15.3232 10.2625 15.3232 9.96965 15.0303C9.67676 14.7374 9.67676 14.2625 9.96965 13.9697L11.9393 12L9.96963 10.0303C9.67673 9.73742 9.67673 9.26254 9.96963 8.96965Z" fill="black"/>
</svg>