<svg xmlns="http://www.w3.org/2000/svg" width="13" height="7" viewBox="0 0 13 7" fill="none">
    <path
        d="M0.943402 3.10926C0.727588 2.89344 0.377675 2.89344 0.161861 3.10926C-0.0539536 3.32508 -0.0539536 3.67494 0.161861 3.89076L0.943402 3.10926ZM3.50001 6.44739L3.10924 6.83813C3.32505 7.05396 3.67496 7.05396 3.89078 6.83813L3.50001 6.44739ZM9.78551 0.943402C10.0013 0.727588 10.0013 0.377675 9.78551 0.161861C9.56969 -0.0539536 9.21983 -0.0539536 9.00401 0.161861L9.78551 0.943402ZM3.89078 3.10926C3.67496 2.89344 3.32505 2.89344 3.10924 3.10926C2.89342 3.32508 2.89342 3.67494 3.10924 3.89076L3.89078 3.10926ZM6.44738 6.44739L6.05664 6.83813C6.27246 7.05396 6.62231 7.05396 6.83813 6.83813L6.44738 6.44739ZM12.7329 0.943402C12.9487 0.727588 12.9487 0.377675 12.7329 0.161861C12.5171 -0.0539536 12.1672 -0.0539536 11.9514 0.161861L12.7329 0.943402ZM0.161861 3.89076L3.10924 6.83813L3.89078 6.05664L0.943402 3.10926L0.161861 3.89076ZM3.89078 6.83813L9.78551 0.943402L9.00401 0.161861L3.10924 6.05664L3.89078 6.83813ZM3.10924 3.89076L6.05664 6.83813L6.83813 6.05664L3.89078 3.10926L3.10924 3.89076ZM6.83813 6.83813L12.7329 0.943402L11.9514 0.161861L6.05664 6.05664L6.83813 6.83813Z"
        fill="#5C5C5C" />
</svg>