<svg width="24" height="24" viewBox="0 0 24 24" fill="none" xmlns="http://www.w3.org/2000/svg">
<path fill-rule="evenodd" clip-rule="evenodd" d="M8.83721 16.0513C8.83721 15.7431 8.58732 15.4932 8.27907 15.4932H4.55814C4.24989 15.4932 4 15.7431 4 16.0513C4 16.3595 4.24989 16.6094 4.55814 16.6094H8.27907C8.58732 16.6094 8.83721 16.3595 8.83721 16.0513Z" fill="black"/>
<path fill-rule="evenodd" clip-rule="evenodd" d="M15.1628 7.86478C15.1628 7.55653 15.4127 7.30664 15.7209 7.30664H19.4418C19.7501 7.30664 20 7.55653 20 7.86478C20 8.17303 19.7501 8.42292 19.4418 8.42292H15.7209C15.4127 8.42292 15.1628 8.17303 15.1628 7.86478Z" fill="black"/>
<path fill-rule="evenodd" clip-rule="evenodd" d="M20 16.0513C20 15.7431 19.7501 15.4932 19.4418 15.4932H12.7442C12.4359 15.4932 12.186 15.7431 12.186 16.0513C12.186 16.3595 12.4359 16.6094 12.7442 16.6094H19.4418C19.7501 16.6094 20 16.3595 20 16.0513Z" fill="black"/>
<path fill-rule="evenodd" clip-rule="evenodd" d="M4 7.86478C4 7.55653 4.24989 7.30664 4.55814 7.30664H11.2558C11.5641 7.30664 11.814 7.55653 11.814 7.86478C11.814 8.17303 11.5641 8.42292 11.2558 8.42292H4.55814C4.24989 8.42292 4 8.17303 4 7.86478Z" fill="black"/>
<path fill-rule="evenodd" clip-rule="evenodd" d="M10.5116 14.3018C11.4363 14.3018 12.186 15.0515 12.186 15.9762C12.186 16.901 11.4363 17.6507 10.5116 17.6507C9.58686 17.6507 8.8372 16.901 8.8372 15.9762C8.8372 15.0515 9.58686 14.3018 10.5116 14.3018ZM13.3023 15.9762C13.3023 14.435 12.0529 13.1855 10.5116 13.1855C8.97035 13.1855 7.72092 14.435 7.72092 15.9762C7.72092 17.5175 8.97035 18.7669 10.5116 18.7669C12.0529 18.7669 13.3023 17.5175 13.3023 15.9762Z" fill="black"/>
<path fill-rule="evenodd" clip-rule="evenodd" d="M13.4884 6.11628C12.5636 6.11628 11.8139 6.86594 11.8139 7.7907C11.8139 8.71545 12.5636 9.46512 13.4884 9.46512C14.4131 9.46512 15.1628 8.71545 15.1628 7.7907C15.1628 6.86594 14.4131 6.11628 13.4884 6.11628ZM10.6977 7.7907C10.6977 6.24944 11.9471 5 13.4884 5C15.0296 5 16.2791 6.24944 16.2791 7.7907C16.2791 9.33196 15.0296 10.5814 13.4884 10.5814C11.9471 10.5814 10.6977 9.33196 10.6977 7.7907Z" fill="black"/>
</svg>
