<svg width="20" height="20" viewBox="0 0 20 20" fill="none" xmlns="http://www.w3.org/2000/svg">
<g clip-path="url(#clip0_4761_14070)">
<path d="M19.1749 9.71009C19.1749 8.93122 19.1131 8.36285 18.9792 7.77344H10.2734V11.2889H15.3835C15.2805 12.1625 14.7242 13.4782 13.4878 14.3623L13.4705 14.48L16.2231 16.6585L16.4138 16.6779C18.1652 15.0254 19.1749 12.594 19.1749 9.71009Z" fill="#4285F4"/>
<path d="M10.2756 18.9724C12.7791 18.9724 14.8808 18.1303 16.4159 16.6778L13.49 14.3622C12.707 14.9201 11.6561 15.3095 10.2756 15.3095C7.82354 15.3095 5.74241 13.6571 5.00055 11.373L4.89181 11.3825L2.02962 13.6454L1.99219 13.7517C3.51697 16.8462 6.64899 18.9724 10.2756 18.9724Z" fill="#34A853"/>
<path d="M4.9974 11.3731C4.80165 10.7837 4.68836 10.1521 4.68836 9.49955C4.68836 8.84693 4.80165 8.21543 4.9871 7.62602L4.98191 7.50049L2.08385 5.20117L1.98903 5.24725C1.3606 6.53136 1 7.97337 1 9.49955C1 11.0257 1.3606 12.4677 1.98903 13.7518L4.9974 11.3731Z" fill="#FBBC05"/>
<path d="M10.2756 3.69016C12.0167 3.69016 13.1912 4.45851 13.8609 5.1006L16.4777 2.49029C14.8706 0.964108 12.7791 0.0273438 10.2756 0.0273438C6.64899 0.0273438 3.51697 2.15346 1.99219 5.2479L4.99025 7.62667C5.74242 5.34267 7.82354 3.69016 10.2756 3.69016Z" fill="#EB4335"/>
</g>
<defs>
<clipPath id="clip0_4761_14070">
<rect x="1" width="18.1739" height="19" rx="9.08696" fill="white"/>
</clipPath>
</defs>
</svg>
