<svg xmlns="http://www.w3.org/2000/svg" width="19" height="19" viewBox="0 0 19 19" fill="none">
    <g clip-path="url(#clip0_3848_12697)">
        <path
            d="M18.6749 9.71058C18.6749 8.93171 18.6131 8.36334 18.4792 7.77393H9.77344V11.2894H14.8835C14.7805 12.163 14.2242 13.4787 12.9878 14.3628L12.9705 14.4805L15.7231 16.659L15.9138 16.6784C17.6652 15.0259 18.6749 12.5945 18.6749 9.71058Z"
            fill="#4285F4" />
        <path
            d="M9.77556 18.9729C12.2791 18.9729 14.3808 18.1308 15.9159 16.6783L12.99 14.3627C12.207 14.9205 11.1561 15.31 9.77556 15.31C7.32354 15.31 5.24241 13.6575 4.50055 11.3735L4.39181 11.383L1.52962 13.6459L1.49219 13.7522C3.01697 16.8467 6.14899 18.9729 9.77556 18.9729Z"
            fill="#34A853" />
        <path
            d="M4.4974 11.3736C4.30165 10.7842 4.18836 10.1526 4.18836 9.50004C4.18836 8.84742 4.30165 8.21592 4.4871 7.62651L4.48191 7.50098L1.58385 5.20166L1.48903 5.24774C0.860597 6.53185 0.5 7.97386 0.5 9.50004C0.5 11.0262 0.860597 12.4682 1.48903 13.7523L4.4974 11.3736Z"
            fill="#FBBC05" />
        <path
            d="M9.77556 3.69016C11.5167 3.69016 12.6912 4.45851 13.3609 5.1006L15.9777 2.49029C14.3706 0.964108 12.2791 0.0273438 9.77556 0.0273438C6.14899 0.0273438 3.01697 2.15346 1.49219 5.2479L4.49025 7.62667C5.24242 5.34267 7.32354 3.69016 9.77556 3.69016Z"
            fill="#EB4335" />
    </g>
    <defs>
        <clipPath id="clip0_3848_12697">
            <rect x="0.5" width="18.1739" height="19" rx="9.08696" fill="white" />
        </clipPath>
    </defs>
</svg>