<svg width="14" height="12" viewBox="0 0 14 12" fill="none" xmlns="http://www.w3.org/2000/svg">
<path d="M0.221821 5.60866L0.221784 5.60871C0.212413 5.62211 0.207692 5.62836 0.202615 5.63647C0.199264 5.64184 0.196679 5.64657 0.192886 5.6535C0.191118 5.65673 0.189087 5.66044 0.186594 5.66492L0.18653 5.66504C0.183836 5.66986 0.18171 5.67359 0.179918 5.67674C0.17666 5.68245 0.174508 5.68622 0.172071 5.69111L0.172053 5.69115C0.169162 5.69694 0.166911 5.70215 0.163654 5.70968C0.162261 5.7129 0.160686 5.71654 0.158798 5.72084L0.158702 5.72106C0.15679 5.72538 0.155184 5.72895 0.153783 5.73206C0.150728 5.73885 0.148652 5.74346 0.146521 5.74897C0.144316 5.75469 0.142647 5.75981 0.140227 5.76722C0.139192 5.77039 0.13802 5.77398 0.13661 5.77822L0.136538 5.77844C0.135027 5.78295 0.13373 5.78674 0.132586 5.79009C0.129945 5.79781 0.128116 5.80316 0.126344 5.80944L0.126328 5.8095C0.12478 5.81497 0.12375 5.81955 0.122219 5.82636C0.121431 5.82986 0.120511 5.83396 0.119318 5.83907L0.119247 5.83937C0.118123 5.84412 0.117154 5.8481 0.1163 5.85161C0.114356 5.8596 0.113013 5.86512 0.111813 5.87159C0.110527 5.87857 0.109735 5.88478 0.108614 5.89357C0.108138 5.89731 0.107602 5.90152 0.106943 5.90645L0.221821 5.60866ZM0.221821 5.60866C0.226192 5.6024 0.228845 5.59843 0.230883 5.59539C0.233454 5.59155 0.235047 5.58917 0.237876 5.58548L0.221821 5.60866ZM0.119246 6.16067L0.119302 6.1609C0.12055 6.16623 0.121496 6.17044 0.122301 6.17402C0.123791 6.18065 0.124795 6.18512 0.126328 6.19054L0.126344 6.1906C0.128869 6.19954 0.131585 6.20686 0.136509 6.22152L0.136528 6.22157C0.138247 6.22669 0.139586 6.2308 0.140736 6.23433L0.119246 6.16067ZM0.119246 6.16067C0.118122 6.15592 0.117152 6.15193 0.116298 6.14842C0.114356 6.14044 0.113012 6.13492 0.111813 6.12845L0.119246 6.16067ZM0.158702 6.27898L0.158798 6.2792C0.160683 6.28349 0.162257 6.28713 0.163647 6.29034C0.166908 6.29788 0.16916 6.30309 0.172053 6.30889L0.172071 6.30892C0.174448 6.31369 0.176405 6.31712 0.179369 6.32231C0.181251 6.3256 0.183539 6.32961 0.186594 6.33511C0.189087 6.3396 0.191118 6.34331 0.192886 6.34654L0.158702 6.27898ZM0.158702 6.27898C0.156786 6.27465 0.155177 6.27108 0.153774 6.26796M0.158702 6.27898L0.153774 6.26796M0.221784 6.39133L0.221821 6.39138C0.226192 6.39764 0.228845 6.4016 0.230883 6.40465C0.233454 6.40849 0.235047 6.41086 0.237876 6.41455C0.250678 6.43124 0.263899 6.44699 0.277642 6.46171L0.277921 6.46205L0.278003 6.46214L5.17804 11.7121L5.10494 11.7803L5.17804 11.7121C5.41187 11.9626 5.78796 11.9626 6.02179 11.7121C6.2593 11.4576 6.2593 11.0424 6.02179 10.7879L2.31673 6.81822L2.15972 6.64999L2.38984 6.64999L13.3 6.64999C13.625 6.64999 13.9 6.36559 13.9 6C13.9 5.63441 13.625 5.35001 13.3 5.35001L2.38984 5.35001L2.15972 5.35001L2.31673 5.18178L6.02179 1.2121C6.2593 0.957635 6.2593 0.542365 6.02179 0.287898C5.78796 0.0373676 5.41187 0.0373676 5.17804 0.287899L0.278003 5.5379L0.277921 5.53799L0.277712 5.53825L0.221784 6.39133ZM0.221784 6.39133C0.218925 6.38724 0.216499 6.38382 0.214364 6.3808C0.2095 6.37394 0.206144 6.36921 0.202615 6.36357L0.221784 6.39133ZM0.153774 6.26796C0.150723 6.26118 0.148649 6.25657 0.146521 6.25107L0.153774 6.26796Z" fill="black" stroke="white" stroke-width="0.2"/>
</svg>
