<svg xmlns="http://www.w3.org/2000/svg" width="23" height="12" viewBox="0 0 23 12" fill="none">
    <path
        d="M5.86176 1.54445V0.0761371H22.6728V1.54445H5.86176ZM5.86176 6.55913V5.09082H22.6728V6.55913H5.86176ZM5.86176 11.5738V10.1055H22.6728V11.5738H5.86176ZM1.48145 1.61912C1.26842 1.61912 1.08039 1.53849 0.917376 1.37725C0.75436 1.216 0.672852 1.01955 0.672852 0.787904C0.672852 0.563287 0.754435 0.37606 0.917602 0.226222C1.08075 0.0763844 1.27424 0.00146484 1.49808 0.00146484C1.72192 0.00146484 1.90994 0.0777865 2.06216 0.230428C2.21439 0.38307 2.2905 0.572206 2.2905 0.797836C2.2905 1.02286 2.21296 1.216 2.05788 1.37725C1.90283 1.53849 1.71068 1.61912 1.48145 1.61912ZM1.48145 6.62135C1.26842 6.62135 1.08039 6.54098 0.917376 6.38025C0.75436 6.21952 0.672852 6.02904 0.672852 5.8088C0.672852 5.58067 0.754435 5.38945 0.917602 5.23515C1.08075 5.08087 1.27424 5.00373 1.49808 5.00373C1.72192 5.00373 1.90994 5.08222 2.06216 5.2392C2.21439 5.39619 2.2905 5.59352 2.2905 5.83119C2.2905 6.03672 2.21296 6.21979 2.05788 6.38042C1.90283 6.54104 1.71068 6.62135 1.48145 6.62135ZM1.48145 11.6485C1.26842 11.6485 1.08039 11.5679 0.917376 11.4066C0.75436 11.2454 0.672852 11.0489 0.672852 10.8173C0.672852 10.5927 0.754435 10.4054 0.917602 10.2556C1.08075 10.1058 1.27424 10.0308 1.49808 10.0308C1.72192 10.0308 1.90994 10.1072 2.06216 10.2598C2.21439 10.4124 2.2905 10.6016 2.2905 10.8272C2.2905 11.0522 2.21296 11.2454 2.05788 11.4066C1.90283 11.5679 1.71068 11.6485 1.48145 11.6485Z"
        fill="black" />
</svg>