<svg width="32" height="32" viewBox="0 0 32 32" fill="none" xmlns="http://www.w3.org/2000/svg">
<circle cx="16" cy="16" r="15.6" fill="white" stroke="#D9D9D9" stroke-width="0.8"/>
<path d="M8 15.4789L7.81718 15.6494L7.66023 15.4811L7.81493 15.3108L8 15.4789ZM8 15.4789L7.81723 15.6494L7.81736 15.6496L7.81788 15.6501L7.81995 15.6523L7.82814 15.6611L7.86009 15.6954L7.98166 15.8257L8.41797 16.2933C8.78042 16.6818 9.267 17.2031 9.76352 17.7349C10.7554 18.7971 11.79 19.904 11.9504 20.0713C12.0853 20.212 12.2584 20.2662 12.4266 20.2459C12.5861 20.2266 12.7263 20.1429 12.8267 20.0356C12.9277 19.9277 13.0027 19.7807 13.0136 19.6154C13.025 19.4437 12.9656 19.27 12.8277 19.1261C12.6479 18.9385 11.8562 18.0915 11.1072 17.289C10.7332 16.8883 10.3705 16.4994 10.1013 16.2107L10.0484 16.1538L10.0576 16.1538L10.0758 16.1538L10.0942 16.1538L10.1129 16.1538L10.1318 16.1538L10.1509 16.1538L10.1703 16.1538L10.19 16.1538L10.2098 16.1538L10.23 16.1538L10.2503 16.1538L10.2709 16.1538L10.2918 16.1538L10.3129 16.1538L10.3342 16.1538L10.3557 16.1538L10.3775 16.1538L10.3995 16.1538L10.4218 16.1538L10.4443 16.1538L10.467 16.1538L10.4899 16.1538L10.513 16.1538L10.5364 16.1538L10.56 16.1538L10.5838 16.1538L10.6079 16.1538L10.6322 16.1538L10.6566 16.1538L10.6813 16.1538L10.7062 16.1538L10.7314 16.1538L10.7567 16.1538L10.7823 16.1538L10.808 16.1538L10.834 16.1538L10.8602 16.1538L10.8865 16.1538L10.9131 16.1538L10.9399 16.1538L10.9669 16.1538L10.9941 16.1538L11.0215 16.1538L11.0491 16.1538L11.0769 16.1538L11.1049 16.1538L11.1331 16.1538L11.1614 16.1538L11.19 16.1538L11.2188 16.1538L11.2477 16.1538L11.2769 16.1538L11.3062 16.1538L11.3357 16.1538L11.3654 16.1538L11.3953 16.1538L11.4253 16.1538L11.4556 16.1538L11.486 16.1538L11.5166 16.1538L11.5474 16.1538L11.5784 16.1538L11.6095 16.1538L11.6408 16.1538L11.6723 16.1538L11.7039 16.1538L11.7358 16.1538L11.7677 16.1538L11.7999 16.1538L11.8322 16.1538L11.8647 16.1538L11.8974 16.1538L11.9302 16.1538L11.9631 16.1538L11.9963 16.1538L12.0296 16.1538L12.063 16.1538L12.0966 16.1538L12.1304 16.1538L12.1643 16.1538L12.1984 16.1538L12.2326 16.1538L12.267 16.1538L12.3015 16.1538L12.3361 16.1538L12.3709 16.1538L12.4059 16.1538L12.441 16.1538L12.4762 16.1538L12.5116 16.1538L12.5471 16.1538L12.5828 16.1538L12.6186 16.1538L12.6545 16.1538L12.6906 16.1538L12.7268 16.1538L12.7631 16.1538L12.7996 16.1538L12.8361 16.1538L12.8729 16.1538L12.9097 16.1538L12.9467 16.1538L12.9838 16.1538L13.021 16.1538L13.0583 16.1538L13.0958 16.1538L13.1334 16.1538L13.1711 16.1538L13.2089 16.1538L13.2468 16.1538L13.2849 16.1538L13.323 16.1538L13.3613 16.1538L13.3997 16.1538L13.4382 16.1538L13.4768 16.1538L13.5155 16.1538L13.5543 16.1538L13.5932 16.1538L13.6322 16.1538L13.6713 16.1538L13.7106 16.1538L13.7499 16.1538L13.7893 16.1538L13.8288 16.1538L13.8684 16.1538L13.9081 16.1538L13.9479 16.1538L13.9878 16.1538L14.0278 16.1538L14.0679 16.1538L14.108 16.1538L14.1483 16.1538L14.1886 16.1538L14.229 16.1538L14.2695 16.1538L14.3101 16.1538L14.3508 16.1538L14.3915 16.1538L14.4323 16.1538L14.4732 16.1538L14.5142 16.1538L14.5552 16.1538L14.5963 16.1538L14.6375 16.1538L14.6788 16.1538L14.7201 16.1538L14.7615 16.1538L14.8029 16.1538L14.8445 16.1538L14.8861 16.1538L14.9277 16.1538L14.9694 16.1538L15.0112 16.1538L15.053 16.1538L15.0949 16.1538L15.1369 16.1538L15.1789 16.1538L15.2209 16.1538L15.263 16.1538L15.3052 16.1538L15.3474 16.1538L15.3896 16.1538L15.432 16.1538L15.4743 16.1538L15.5167 16.1538L15.5591 16.1538L15.6016 16.1538L15.6442 16.1538L15.6867 16.1538L15.7293 16.1538L15.772 16.1538L15.8146 16.1538L15.8574 16.1538L15.9001 16.1538L15.9429 16.1538L15.9857 16.1538L16.0285 16.1538L16.0714 16.1538L16.1143 16.1538L16.1572 16.1538L16.2002 16.1538L16.2431 16.1538L16.2861 16.1538L16.3291 16.1538L16.3722 16.1538L16.4152 16.1538L16.4583 16.1538L16.5014 16.1538L16.5445 16.1538L16.5876 16.1538L16.6307 16.1538L16.6739 16.1538L16.717 16.1538L16.7602 16.1538L16.8033 16.1538L16.8465 16.1538L16.8897 16.1538L16.9329 16.1538L16.976 16.1538L17.0192 16.1538L17.0624 16.1538L17.1056 16.1538L17.1487 16.1538L17.1919 16.1538L17.2351 16.1538L17.2782 16.1538L17.3214 16.1538L17.3645 16.1538L17.4077 16.1538L17.4508 16.1538L17.4939 16.1538L17.537 16.1538L17.5801 16.1538L17.6231 16.1538L17.6662 16.1538L17.7092 16.1538L17.7522 16.1538L17.7952 16.1538L17.8382 16.1538L17.8811 16.1538L17.924 16.1538L17.9669 16.1538L18.0097 16.1538L18.0526 16.1538L18.0954 16.1538L18.1381 16.1538L18.1809 16.1538L18.2236 16.1538L18.2662 16.1538L18.3088 16.1538L18.3514 16.1538L18.394 16.1538L18.4365 16.1538L18.4789 16.1538L18.5214 16.1538L18.5637 16.1538L18.6061 16.1538L18.6484 16.1538L18.6906 16.1538L18.7328 16.1538L18.7749 16.1538L18.817 16.1538L18.859 16.1538L18.901 16.1538L18.9429 16.1538L18.9848 16.1538L19.0266 16.1538L19.0683 16.1538L19.11 16.1538L19.1516 16.1538L19.1932 16.1538L19.2347 16.1538L19.2761 16.1538L19.3175 16.1538L19.3588 16.1538L19.4 16.1538L19.4412 16.1538L19.4822 16.1538L19.5233 16.1538L19.5642 16.1538L19.605 16.1538L19.6458 16.1538L19.6865 16.1538L19.7271 16.1538L19.7677 16.1538L19.8081 16.1538L19.8485 16.1538L19.8888 16.1538L19.929 16.1538L19.9691 16.1538L20.0092 16.1538L20.0491 16.1538L20.0889 16.1538L20.1287 16.1538L20.1684 16.1538L20.2079 16.1538L20.2474 16.1538L20.2868 16.1538L20.3261 16.1538L20.3652 16.1538L20.4043 16.1538L20.4433 16.1538L20.4821 16.1538L20.5209 16.1538L20.5596 16.1538L20.5981 16.1538L20.6366 16.1538L20.6749 16.1538L20.7131 16.1538L20.7512 16.1538L20.7892 16.1538L20.8271 16.1538L20.8648 16.1538L20.9025 16.1538L20.94 16.1538L20.9774 16.1538L21.0147 16.1538L21.0519 16.1538L21.0889 16.1538L21.1258 16.1538L21.1626 16.1538L21.1993 16.1538L21.2358 16.1538L21.2722 16.1538L21.3085 16.1538L21.3446 16.1538L21.3806 16.1538L21.4165 16.1538L21.4522 16.1538L21.4878 16.1538L21.5233 16.1538L21.5586 16.1538L21.5937 16.1538L21.6288 16.1538L21.6637 16.1538L21.6984 16.1538L21.733 16.1538L21.7674 16.1538L21.8017 16.1538L21.8359 16.1538L21.8699 16.1538L21.9037 16.1538L21.9374 16.1538L21.971 16.1538L22.0043 16.1538L22.0376 16.1538L22.0706 16.1538L22.1035 16.1538L22.1363 16.1538L22.1688 16.1538L22.2012 16.1538L22.2335 16.1538L22.2656 16.1538L22.2975 16.1538L22.3292 16.1538L22.3608 16.1538L22.3922 16.1538L22.4234 16.1538L22.4545 16.1538L22.4853 16.1538L22.516 16.1538L22.5466 16.1538L22.5769 16.1538L22.6071 16.1538L22.6371 16.1538L22.6669 16.1538L22.6965 16.1538L22.7259 16.1538L22.7551 16.1538L22.7842 16.1538L22.8131 16.1538L22.8417 16.1538L22.8702 16.1538L22.8985 16.1538L22.9266 16.1538L22.9545 16.1538L22.9822 16.1538L23.0097 16.1538L23.037 16.1538L23.0641 16.1538L23.091 16.1538L23.1177 16.1538L23.1442 16.1538L23.1705 16.1538L23.1966 16.1538L23.2224 16.1538L23.2481 16.1538L23.2736 16.1538L23.2988 16.1538L23.3238 16.1538L23.3486 16.1538L23.3732 16.1538L23.3976 16.1538L23.4218 16.1538L23.4457 16.1538L23.4694 16.1538L23.4929 16.1538L23.5162 16.1538L23.5393 16.1538L23.5621 16.1538L23.5847 16.1538L23.6071 16.1538L23.6292 16.1538L23.6511 16.1538L23.6728 16.1538L23.6942 16.1538L23.7154 16.1538L23.7364 16.1538L23.7572 16.1538L23.7776 16.1538L23.7979 16.1538L23.8179 16.1538L23.8377 16.1538L23.8572 16.1538L23.8765 16.1538L23.8956 16.1538L23.9143 16.1538L23.9329 16.1538L23.9512 16.1538L23.9692 16.1538L23.987 16.1538L24.0046 16.1538L24.0218 16.1538L24.0389 16.1538L24.0556 16.1538L24.0721 16.1538L24.0884 16.1538L24.1044 16.1538L24.1201 16.1538L24.1356 16.1538L24.1508 16.1538L24.1657 16.1538L24.1804 16.1538L24.1948 16.1538L24.2089 16.1538L24.2227 16.1538L24.2363 16.1538L24.2496 16.1538L24.2627 16.1538L24.2754 16.1538L24.2879 16.1538L24.3001 16.1538L24.312 16.1538L24.3236 16.1538L24.335 16.1538L24.3461 16.1538L24.3569 16.1538L24.3674 16.1538L24.3776 16.1538L24.3875 16.1538L24.3971 16.1538L24.4065 16.1538L24.4155 16.1538L24.4243 16.1538L24.4327 16.1538L24.4409 16.1538L24.4488 16.1538L24.4563 16.1538L24.4636 16.1538L24.4706 16.1538L24.4772 16.1538L24.4836 16.1538L24.4896 16.1538L24.4954 16.1538L24.5008 16.1538L24.506 16.1538L24.5108 16.1538L24.5153 16.1538L24.5195 16.1538L24.5234 16.1538C24.7407 16.1538 24.9262 16.0796 25.0579 15.9475C25.1872 15.8178 25.25 15.6467 25.25 15.4789C25.25 15.311 25.1872 15.1399 25.0579 15.0102C24.9262 14.8781 24.7407 14.8039 24.5234 14.8039L24.5195 14.8039L24.5153 14.8039L24.5108 14.8039L24.506 14.8039L24.5008 14.8039L24.4954 14.8039L24.4896 14.8039L24.4836 14.8039L24.4772 14.8039L24.4706 14.8039L24.4636 14.8039L24.4563 14.8039L24.4488 14.8039L24.4409 14.8039L24.4327 14.8039L24.4243 14.8039L24.4155 14.8039L24.4065 14.8039L24.3971 14.8039L24.3875 14.8039L24.3776 14.8039L24.3674 14.8039L24.3569 14.8039L24.3461 14.8039L24.335 14.8039L24.3236 14.8039L24.312 14.8039L24.3001 14.8039L24.2879 14.8039L24.2754 14.8039L24.2627 14.8039L24.2496 14.8039L24.2363 14.8039L24.2227 14.8039L24.2089 14.8039L24.1948 14.8039L24.1804 14.8039L24.1657 14.8039L24.1508 14.8039L24.1356 14.8039L24.1201 14.8039L24.1044 14.8039L24.0884 14.8039L24.0721 14.8039L24.0556 14.8039L24.0389 14.8039L24.0218 14.8039L24.0046 14.8039L23.987 14.8039L23.9692 14.8039L23.9512 14.8039L23.9329 14.8039L23.9143 14.8039L23.8956 14.8039L23.8765 14.8039L23.8572 14.8039L23.8377 14.8039L23.8179 14.8039L23.7979 14.8039L23.7776 14.8039L23.7572 14.8039L23.7364 14.8039L23.7154 14.8039L23.6942 14.8039L23.6728 14.8039L23.6511 14.8039L23.6292 14.8039L23.6071 14.8039L23.5847 14.8039L23.5621 14.8039L23.5393 14.8039L23.5162 14.8039L23.4929 14.8039L23.4694 14.8039L23.4457 14.8039L23.4218 14.8039L23.3976 14.8039L23.3732 14.8039L23.3486 14.8039L23.3238 14.8039L23.2988 14.8039L23.2736 14.8039L23.2481 14.8039L23.2224 14.8039L23.1966 14.8039L23.1705 14.8039L23.1442 14.8039L23.1177 14.8039L23.091 14.8039L23.0641 14.8039L23.037 14.8039L23.0097 14.8039L22.9822 14.8039L22.9545 14.8039L22.9266 14.8039L22.8985 14.8039L22.8702 14.8039L22.8417 14.8039L22.8131 14.8039L22.7842 14.8039L22.7551 14.8039L22.7259 14.8039L22.6965 14.8039L22.6669 14.8039L22.6371 14.8039L22.6071 14.8039L22.5769 14.8039L22.5466 14.8039L22.516 14.8039L22.4853 14.8039L22.4545 14.8039L22.4234 14.8039L22.3922 14.8039L22.3608 14.8039L22.3292 14.8039L22.2975 14.8039L22.2656 14.8039L22.2335 14.8039L22.2012 14.8039L22.1688 14.8039L22.1363 14.8039L22.1035 14.8039L22.0706 14.8039L22.0376 14.8039L22.0043 14.8039L21.971 14.8039L21.9374 14.8039L21.9037 14.8039L21.8699 14.8039L21.8359 14.8039L21.8017 14.8039L21.7674 14.8039L21.733 14.8039L21.6984 14.8039L21.6637 14.8039L21.6288 14.8039L21.5937 14.8039L21.5586 14.8039L21.5233 14.8039L21.4878 14.8039L21.4522 14.8039L21.4165 14.8039L21.3806 14.8039L21.3446 14.8039L21.3085 14.8039L21.2722 14.8039L21.2358 14.8039L21.1993 14.8039L21.1626 14.8039L21.1258 14.8039L21.0889 14.8039L21.0519 14.8039L21.0147 14.8039L20.9774 14.8039L20.94 14.8039L20.9025 14.8039L20.8648 14.8039L20.8271 14.8039L20.7892 14.8039L20.7512 14.8039L20.7131 14.8039L20.6749 14.8039L20.6366 14.8039L20.5981 14.8039L20.5596 14.8039L20.5209 14.8039L20.4821 14.8039L20.4433 14.8039L20.4043 14.8039L20.3652 14.8039L20.3261 14.8039L20.2868 14.8039L20.2474 14.8039L20.2079 14.8039L20.1684 14.8039L20.1287 14.8039L20.0889 14.8039L20.0491 14.8039L20.0092 14.8039L19.9691 14.8039L19.929 14.8039L19.8888 14.8039L19.8485 14.8039L19.8081 14.8039L19.7677 14.8039L19.7271 14.8039L19.6865 14.8039L19.6458 14.8039L19.605 14.8039L19.5642 14.8039L19.5233 14.8039L19.4822 14.8039L19.4412 14.8039L19.4 14.8039L19.3588 14.8039L19.3175 14.8039L19.2761 14.8039L19.2347 14.8039L19.1932 14.8039L19.1516 14.8039L19.11 14.8039L19.0683 14.8039L19.0266 14.8039L18.9848 14.8039L18.9429 14.8039L18.901 14.8039L18.859 14.8039L18.817 14.8039L18.7749 14.8039L18.7328 14.8039L18.6906 14.8039L18.6484 14.8039L18.6061 14.8039L18.5637 14.8039L18.5214 14.8039L18.4789 14.8039L18.4365 14.8039L18.394 14.8039L18.3514 14.8039L18.3088 14.8039L18.2662 14.8039L18.2236 14.8039L18.1809 14.8039L18.1381 14.8039L18.0954 14.8039L18.0526 14.8039L18.0097 14.8039L17.9669 14.8039L17.924 14.8039L17.8811 14.8039L17.8382 14.8039L17.7952 14.8039L17.7522 14.8039L17.7092 14.8039L17.6662 14.8039L17.6231 14.8039L17.5801 14.8039L17.537 14.8039L17.4939 14.8039L17.4508 14.8039L17.4077 14.8039L17.3645 14.8039L17.3214 14.8039L17.2782 14.8039L17.2351 14.8039L17.1919 14.8039L17.1487 14.8039L17.1056 14.8039L17.0624 14.8039L17.0192 14.8039L16.976 14.8039L16.9329 14.8039L16.8897 14.8039L16.8465 14.8039L16.8033 14.8039L16.7602 14.8039L16.717 14.8039L16.6739 14.8039L16.6307 14.8039L16.5876 14.8039L16.5445 14.8039L16.5014 14.8039L16.4583 14.8039L16.4152 14.8039L16.3722 14.8039L16.3291 14.8039L16.2861 14.8039L16.2431 14.8039L16.2002 14.8039L16.1572 14.8039L16.1143 14.8039L16.0714 14.8039L16.0285 14.8039L15.9857 14.8039L15.9429 14.8039L15.9001 14.8039L15.8574 14.8039L15.8146 14.8039L15.772 14.8039L15.7293 14.8039L15.6867 14.8039L15.6442 14.8039L15.6016 14.8039L15.5591 14.8039L15.5167 14.8039L15.4743 14.8039L15.432 14.8039L15.3896 14.8039L15.3474 14.8039L15.3052 14.8039L15.263 14.8039L15.2209 14.8039L15.1789 14.8039L15.1369 14.8039L15.0949 14.8039L15.053 14.8039L15.0112 14.8039L14.9694 14.8039L14.9277 14.8039L14.8861 14.8039L14.8445 14.8039L14.8029 14.8039L14.7615 14.8039L14.7201 14.8039L14.6788 14.8039L14.6375 14.8039L14.5963 14.8039L14.5552 14.8039L14.5142 14.8039L14.4732 14.8039L14.4323 14.8039L14.3915 14.8039L14.3508 14.8039L14.3101 14.8039L14.2695 14.8039L14.229 14.8039L14.1886 14.8039L14.1483 14.8039L14.108 14.8039L14.0679 14.8039L14.0278 14.8039L13.9878 14.8039L13.9479 14.8039L13.9081 14.8039L13.8684 14.8039L13.8288 14.8039L13.7893 14.8039L13.7499 14.8039L13.7106 14.8039L13.6713 14.8039L13.6322 14.8039L13.5932 14.8039L13.5543 14.8039L13.5155 14.8039L13.4768 14.8039L13.4382 14.8039L13.3997 14.8039L13.3613 14.8039L13.323 14.8039L13.2849 14.8039L13.2468 14.8039L13.2089 14.8039L13.1711 14.8039L13.1334 14.8039L13.0958 14.8039L13.0583 14.8039L13.021 14.8039L12.9838 14.8039L12.9467 14.8039L12.9097 14.8039L12.8729 14.8039L12.8361 14.8039L12.7996 14.8039L12.7631 14.8039L12.7268 14.8039L12.6906 14.8039L12.6545 14.8039L12.6186 14.8039L12.5828 14.8039L12.5471 14.8039L12.5116 14.8039L12.4762 14.8039L12.441 14.8039L12.4059 14.8039L12.3709 14.8039L12.3361 14.8039L12.3015 14.8039L12.267 14.8039L12.2326 14.8039L12.1984 14.8039L12.1643 14.8039L12.1304 14.8039L12.0966 14.8039L12.063 14.8039L12.0296 14.8039L11.9963 14.8039L11.9631 14.8039L11.9302 14.8039L11.8974 14.8039L11.8647 14.8039L11.8322 14.8039L11.7999 14.8039L11.7677 14.8039L11.7358 14.8039L11.7039 14.8039L11.6723 14.8039L11.6408 14.8039L11.6095 14.8039L11.5784 14.8039L11.5474 14.8039L11.5166 14.8039L11.486 14.8039L11.4556 14.8039L11.4253 14.8039L11.3953 14.8039L11.3654 14.8039L11.3357 14.8039L11.3062 14.8039L11.2769 14.8039L11.2477 14.8039L11.2188 14.8039L11.19 14.8039L11.1614 14.8039L11.1331 14.8039L11.1049 14.8039L11.0769 14.8039L11.0491 14.8039L11.0215 14.8039L10.9941 14.8039L10.9669 14.8039L10.9399 14.8039L10.9131 14.8039L10.8865 14.8039L10.8602 14.8039L10.834 14.8039L10.808 14.8039L10.7823 14.8039L10.7567 14.8039L10.7314 14.8039L10.7062 14.8039L10.6813 14.8039L10.6566 14.8039L10.6322 14.8039L10.6079 14.8039L10.5838 14.8039L10.56 14.8039L10.5364 14.8039L10.513 14.8039L10.4899 14.8039L10.467 14.8039L10.4443 14.8039L10.4218 14.8039L10.3995 14.8039L10.3775 14.8039L10.3557 14.8039L10.3342 14.8039L10.3129 14.8039L10.2918 14.8039L10.2709 14.8039L10.2503 14.8039L10.23 14.8039L10.2098 14.8039L10.19 14.8039L10.1703 14.8039L10.1509 14.8039L10.1318 14.8039L10.1129 14.8039L10.0942 14.8039L10.0758 14.8039L10.0576 14.8039L10.054 14.8039C10.0752 14.7814 10.0971 14.7581 10.1197 14.7342C10.3998 14.4373 10.7757 14.0378 11.1587 13.6278C11.5415 13.2181 11.932 12.7973 12.2412 12.4579C12.3957 12.2882 12.5306 12.1381 12.6344 12.0195C12.7336 11.9061 12.8155 11.809 12.854 11.7523C13.0491 11.4651 12.9501 11.1428 12.7742 10.9568C12.5993 10.7718 12.2783 10.6525 11.9881 10.8542C11.9507 10.8802 11.9043 10.9222 11.8604 10.9638C11.8121 11.0094 11.7527 11.068 11.6845 11.1368C11.5478 11.2748 11.3713 11.4585 11.1698 11.6713C10.7665 12.0972 10.2591 12.6437 9.76242 13.1826C9.26556 13.7216 8.77871 14.2536 8.41611 14.6508C8.2348 14.8495 8.08453 15.0144 7.97958 15.1297L7.85792 15.2635L7.82592 15.2987L7.81772 15.3077L7.81564 15.31L7.81511 15.3106L7.81498 15.3107L8 15.4789Z" fill="black" stroke="black" stroke-width="0.5"/>
</svg>
