<svg width="26" height="31" viewBox="0 0 26 31" fill="none" xmlns="http://www.w3.org/2000/svg">
<path d="M17.25 25.2705C17.25 26.3976 16.8022 27.4787 16.0052 28.2757C15.2082 29.0727 14.1271 29.5205 13 29.5205C11.8729 29.5205 10.7918 29.0727 9.99481 28.2757C9.19778 27.4787 8.75 26.3976 8.75 25.2705" stroke="black" stroke-width="1.5" stroke-linecap="round" stroke-linejoin="round"/>
<path d="M3.90637 23.854C3.21298 23.7068 2.59994 23.3052 2.18819 22.7282C1.77644 22.1512 1.59591 21.4409 1.68223 20.7374L3.09889 9.24818C3.4606 6.8861 4.66304 4.73403 6.48505 3.18792C8.30707 1.6418 10.6261 0.805639 13.0156 0.833179C15.4051 0.805639 17.724 1.6418 19.546 3.18792C21.3681 4.73403 22.5706 6.8861 22.9323 9.24818L24.3489 20.7374C24.4358 21.4389 24.2571 22.1475 23.8483 22.7242C23.4394 23.3008 22.8297 23.7039 22.1389 23.854C16.143 25.2629 9.90221 25.2629 3.90637 23.854Z" stroke="black" stroke-width="1.5" stroke-linecap="round" stroke-linejoin="round"/>
</svg>
