<svg width="28" height="28" viewBox="0 0 28 28" fill="none" xmlns="http://www.w3.org/2000/svg">
<circle cx="13.999" cy="14" r="13.5" fill="black" stroke="#D9D9D9"/>
<path d="M14.0115 19.1392C13.3287 19.1392 12.7188 19.0215 12.1819 18.7862C11.6483 18.5509 11.2257 18.2244 10.9142 17.8068C10.6059 17.3859 10.4402 16.8987 10.417 16.3452H11.9781C11.998 16.6468 12.099 16.9086 12.2813 17.1307C12.4669 17.3494 12.7089 17.5185 13.0072 17.6378C13.3055 17.7571 13.6369 17.8168 14.0015 17.8168C14.4026 17.8168 14.7572 17.7472 15.0654 17.608C15.377 17.4687 15.6206 17.2749 15.7963 17.0263C15.9719 16.7744 16.0597 16.4844 16.0597 16.1562C16.0597 15.8149 15.9719 15.5149 15.7963 15.2564C15.6239 14.9946 15.3704 14.7891 15.0356 14.6399C14.7042 14.4908 14.3031 14.4162 13.8325 14.4162H12.9724V13.1634H13.8325C14.2103 13.1634 14.5418 13.0954 14.8268 12.9595C15.1151 12.8236 15.3405 12.6347 15.5029 12.3928C15.6653 12.1475 15.7465 11.8608 15.7465 11.5327C15.7465 11.2178 15.6753 10.9444 15.5328 10.7124C15.3936 10.477 15.1947 10.2931 14.9362 10.1605C14.681 10.0279 14.3794 9.96165 14.0313 9.96165C13.6999 9.96165 13.39 10.023 13.1017 10.1456C12.8166 10.2649 12.5846 10.4373 12.4056 10.6626C12.2267 10.8847 12.1305 11.1515 12.1173 11.4631H10.6308C10.6473 10.9129 10.8097 10.429 11.118 10.0114C11.4295 9.59375 11.8405 9.26728 12.3509 9.03196C12.8614 8.79664 13.4281 8.67898 14.0512 8.67898C14.7042 8.67898 15.2676 8.80658 15.7416 9.06179C16.2188 9.31368 16.5867 9.65009 16.8453 10.071C17.1071 10.492 17.2364 10.9527 17.233 11.4531C17.2364 12.0232 17.0773 12.5071 16.7558 12.9048C16.4376 13.3026 16.0133 13.5694 15.483 13.7053V13.7848C16.1592 13.8875 16.6829 14.156 17.0541 14.5902C17.4286 15.0244 17.6142 15.563 17.6109 16.206C17.6142 16.7661 17.4584 17.2682 17.1436 17.7124C16.832 18.1565 16.4061 18.5062 15.8659 18.7614C15.3256 19.0133 14.7075 19.1392 14.0115 19.1392Z" fill="white"/>
</svg>
