<svg width="30" height="23" viewBox="0 0 30 23" fill="none" xmlns="http://www.w3.org/2000/svg">
    <path
        d="M0.454224 5.51233C-0.106953 6.01066 -0.154708 6.86597 0.347561 7.42275C0.849815 7.97952 1.71191 8.02691 2.27307 7.52858L0.454224 5.51233ZM27.727 7.52858C28.2881 8.02691 29.1502 7.97952 29.6524 7.42275C30.1548 6.86597 30.1069 6.01066 29.5458 5.51233L27.727 7.52858ZM15 20.2941C14.2469 20.2941 13.6364 20.8998 13.6364 21.6471C13.6364 22.3943 14.2469 23 15 23V20.2941ZM15.0136 23C15.7668 23 16.3773 22.3943 16.3773 21.6471C16.3773 20.8998 15.7668 20.2941 15.0136 20.2941V23ZM18.6689 17.6424C19.2259 18.1451 20.0884 18.1047 20.5951 17.552C21.102 16.9992 21.0611 16.1436 20.504 15.6407L18.6689 17.6424ZM23.2553 12.6369C23.8124 13.1396 24.6749 13.0992 25.1816 12.5464C25.6883 11.9937 25.6475 11.138 25.0905 10.6352L23.2553 12.6369ZM9.49599 15.6407C8.93887 16.1436 8.89806 16.9992 9.40483 17.552C9.9116 18.1047 10.774 18.1451 11.3311 17.6424L9.49599 15.6407ZM4.90956 10.6352C4.35245 11.138 4.31162 11.9937 4.81839 12.5464C5.32516 13.0992 6.18759 13.1396 6.7447 12.6369L4.90956 10.6352ZM2.27307 7.52858C5.65152 4.52851 10.1096 2.70588 15 2.70588V0C9.41285 0 4.31335 2.0854 0.454224 5.51233L2.27307 7.52858ZM15 2.70588C19.8904 2.70588 24.3485 4.52851 27.727 7.52858L29.5458 5.51233C25.6867 2.0854 20.5871 0 15 0V2.70588ZM15 23H15.0136V20.2941H15V23ZM15 16.2353C16.4137 16.2353 17.699 16.7671 18.6689 17.6424L20.504 15.6407C19.0518 14.3301 17.1185 13.5294 15 13.5294V16.2353ZM15 9.47059C18.1799 9.47059 21.0745 10.6686 23.2553 12.6369L25.0905 10.6352C22.4272 8.23156 18.8846 6.76471 15 6.76471V9.47059ZM11.3311 17.6424C12.301 16.7671 13.5863 16.2353 15 16.2353V13.5294C12.8815 13.5294 10.9483 14.3301 9.49599 15.6407L11.3311 17.6424ZM6.7447 12.6369C8.92561 10.6686 11.8202 9.47059 15 9.47059V6.76471C11.1154 6.76471 7.57288 8.23156 4.90956 10.6352L6.7447 12.6369Z"
        fill="black" />
</svg>