 <svg
            width="92"
            height="110"
            viewBox="0 0 92 110"
            fill="none"
            xmlns="http://www.w3.org/2000/svg"
          >
            <path
              d="M40.1894 56.045H65.8687V51.9815V27.7344H42.1565H40.1894H38.5621H15.002V56.045H36.9974"
              stroke="#231F20"
              stroke-miterlimit="10"
            />
            <path
              d="M67.9161 20.0176H12.9453V27.7338H67.9161V20.0176Z"
              stroke="#231F20"
              stroke-miterlimit="10"
            />
            <path
              d="M41.6823 19.9915C50.4715 20.7685 57.088 16.3299 57.8748 11.3554C58.3487 8.36362 56.8377 4.3001 53.4579 2.52287C50.2211 0.826021 46.0545 1.62979 43.6761 3.80891C38.5618 8.48865 40.6272 20.4113 40.6272 20.4113"
              stroke="#231F20"
              stroke-miterlimit="10"
            />
            <path
              d="M38.7327 19.982C29.9435 20.7768 23.327 16.24 22.5401 11.1673C22.0662 8.11298 23.5773 3.96015 26.9571 2.15613C30.1938 0.423559 34.3604 1.24519 36.7388 3.46896C41.8532 8.24694 39.7878 20.4107 39.7878 20.4107"
              stroke="#231F20"
              stroke-miterlimit="10"
            />
            <path
              d="M40.3668 19.1699C40.2595 19.7326 39.0703 26.5468 45.1325 30.6817C47.6808 32.4232 50.4973 32.9948 52.1246 33.2002"
              stroke="#231F20"
              stroke-miterlimit="10"
              stroke-linecap="round"
            />
            <path
              d="M40.0468 19.6426C40.1541 20.2052 41.3433 27.0194 35.2811 31.1544C32.7329 32.8959 29.9164 33.4675 28.2891 33.6729"
              stroke="#231F20"
              stroke-miterlimit="10"
              stroke-linecap="round"
            />
            <path
              d="M40.1895 20.0176V56.0444"
              stroke="#231F20"
              stroke-miterlimit="10"
            />
            <path
              d="M75.5474 50.6558L9.4892 59.9523C4.47714 60.6577 0.986537 65.2878 1.69272 70.294L5.95408 100.503C6.66027 105.509 11.2958 108.996 16.3079 108.291L82.366 98.9941C87.3781 98.2888 90.8687 93.6586 90.1625 88.6524L85.9012 58.4432C85.195 53.437 80.5594 49.9505 75.5474 50.6558Z"
              fill="white"
              stroke="#231F20"
              stroke-miterlimit="10"
            />
            <path
              d="M44.0662 90.6694L10.8379 95.3457L11.7211 101.607L44.9494 96.9306L44.0662 90.6694Z"
              fill="white"
              stroke="#231F20"
              stroke-miterlimit="10"
            />
            <path
              d="M59.0117 90.1236L82.8133 86.7656"
              stroke="#231F20"
              stroke-miterlimit="10"
            />
            <path
              d="M59.459 93.3122L75.0972 91.1152"
              stroke="#231F20"
              stroke-miterlimit="10"
            />
            <path
              d="M85.7143 58.5115L1.50586 70.3623L2.31547 76.1017L86.5239 64.2509L85.7143 58.5115Z"
              fill="white"
              stroke="#231F20"
              stroke-miterlimit="10"
            />
          </svg>