<svg xmlns="http://www.w3.org/2000/svg" width="33" height="32" viewBox="0 0 33 32" fill="none">
  <path d="M17.0927 21.2439V22.576C17.0927 22.6816 17.0718 22.786 17.0314 22.8836C16.9911 22.9811 16.9318 23.0699 16.8571 23.1446C16.7825 23.2193 16.6938 23.2783 16.5964 23.3187C16.4988 23.359 16.3942 23.3799 16.2886 23.3799C16.1831 23.3799 16.0785 23.359 15.9809 23.3187C15.8833 23.2783 15.7948 23.2193 15.7202 23.1446C15.6455 23.0699 15.5862 22.9811 15.5459 22.8836C15.5055 22.786 15.4846 22.6816 15.4846 22.576V21.2081C14.9521 21.1207 14.4424 20.9282 13.9851 20.6419C13.5277 20.3554 13.1318 19.9808 12.8206 19.5399C12.7073 19.396 12.6441 19.2191 12.6406 19.036C12.6421 18.9331 12.6643 18.8314 12.7059 18.7372C12.7474 18.643 12.8075 18.5582 12.8825 18.4876C12.9575 18.4171 13.0459 18.3625 13.1425 18.3268C13.239 18.2911 13.3418 18.2751 13.4446 18.2799C13.5464 18.2801 13.6469 18.3019 13.7399 18.3431C13.8329 18.3845 13.9162 18.4448 13.9846 18.5201C14.3715 19.0211 14.8912 19.4036 15.4846 19.624V16.564C13.8886 15.94 13.0846 15.0039 13.0846 13.7919C13.1087 13.1431 13.3637 12.5241 13.8037 12.0467C14.2438 11.5692 14.8398 11.2648 15.4846 11.188V9.86787C15.4846 9.76229 15.5055 9.6578 15.5459 9.56026C15.5862 9.46271 15.6455 9.37418 15.7202 9.29951C15.7948 9.22485 15.8833 9.16561 15.9809 9.1252C16.0785 9.0848 16.1831 9.06396 16.2886 9.06396C16.3942 9.06396 16.4988 9.0848 16.5964 9.1252C16.6938 9.16561 16.7825 9.22485 16.8571 9.29951C16.9318 9.37418 16.9911 9.46271 17.0314 9.56026C17.0718 9.6578 17.0927 9.76229 17.0927 9.86787V11.176C17.5392 11.2459 17.967 11.4052 18.3505 11.6444C18.7341 11.8836 19.0654 12.1977 19.3246 12.5679C19.4389 12.7028 19.5064 12.8715 19.5166 13.048C19.5198 13.1515 19.5024 13.2543 19.4655 13.351C19.4284 13.4476 19.3726 13.5361 19.3011 13.6108C19.2295 13.6857 19.1439 13.7456 19.0491 13.787C18.9543 13.8284 18.8521 13.8505 18.7486 13.852C18.6403 13.849 18.5339 13.8229 18.4366 13.7752C18.3393 13.7276 18.2533 13.6597 18.1846 13.576C17.8985 13.2185 17.5213 12.9451 17.0927 12.7841V15.4841L17.3927 15.6039C18.9167 16.2039 19.8647 17.068 19.8647 18.436C19.8468 19.169 19.5501 19.8675 19.035 20.3893C18.52 20.911 17.8253 21.2165 17.0927 21.2439ZM15.4846 14.788V12.8319C15.2909 12.9021 15.1242 13.0315 15.0079 13.2016C14.8918 13.3717 14.8318 13.574 14.8367 13.7799C14.8331 13.9931 14.8926 14.2029 15.0079 14.3822C15.1233 14.5616 15.2891 14.7027 15.4846 14.788ZM18.1126 18.472C18.1126 17.896 17.7167 17.548 17.0927 17.272V19.672C17.3788 19.6287 17.6397 19.4833 17.8271 19.2628C18.0145 19.0423 18.116 18.7615 18.1126 18.472Z" fill="black"/>
  <path d="M23.452 5.47607H9.05195C7.77891 5.47607 6.55802 5.98186 5.65784 6.88203C4.75766 7.78221 4.25195 9.00303 4.25195 10.2761V22.2761C4.25195 23.5491 4.75766 24.7699 5.65784 25.6701C6.55802 26.5703 7.77891 27.0761 9.05195 27.0761H23.452C24.725 27.0761 25.9459 26.5703 26.846 25.6701C27.7463 24.7699 28.252 23.5491 28.252 22.2761V10.2761C28.252 9.00303 27.7463 7.78221 26.846 6.88203C25.9459 5.98186 24.725 5.47607 23.452 5.47607Z" stroke="black" stroke-linecap="round" stroke-linejoin="round"/>
</svg>