<svg width="26" height="26" viewBox="0 0 26 26" fill="none" xmlns="http://www.w3.org/2000/svg">
<path d="M14.068 5.65613H4.732C2.67999 5.65613 1 7.33612 1 9.38813V23.0202C1 24.7602 2.248 25.5042 3.77201 24.6522L8.48801 22.0242C8.99201 21.7482 9.80803 21.7482 10.3 22.0242L15.016 24.6522C16.54 25.5042 17.7881 24.7602 17.7881 23.0202V9.38813C17.8001 7.33612 16.12 5.65613 14.068 5.65613Z" stroke="black" stroke-width="1.32" stroke-linecap="round" stroke-linejoin="round"/>
<path d="M24.9997 4.732V18.3641C24.9997 20.1041 23.7517 20.8361 22.2277 19.9961L17.7997 17.5241V9.38802C17.7997 7.33601 16.1197 5.65602 14.0677 5.65602H8.19965V4.732C8.19965 2.67999 9.87964 1 11.9317 1H21.2677C23.3197 1 24.9997 2.67999 24.9997 4.732Z" stroke="black" stroke-width="1.32" stroke-linecap="round" stroke-linejoin="round"/>
</svg>
