<svg xmlns="http://www.w3.org/2000/svg" version="1.1" xmlns:xlink="http://www.w3.org/1999/xlink" width="33" height="33" x="0" y="0" viewBox="0 0 24 24" style="enable-background:new 0 0 512 512" xml:space="preserve" class=""><g><path d="M18.5 17a.5.5 0 0 1-.186-.036l-5-2a.499.499 0 0 1 0-.928l5-2a.496.496 0 0 1 .371 0l5 2a.498.498 0 0 1 .001.928l-5 2A.5.5 0 0 1 18.5 17zm-3.653-2.5 3.653 1.461 3.653-1.461-3.653-1.461z" fill="#000000" opacity="1" data-original="#000000" class=""></path><path d="M18.5 23a.5.5 0 0 1-.186-.036l-5-2A.499.499 0 0 1 13 20.5v-6a.5.5 0 0 1 1 0v5.662l4.5 1.8 4.5-1.8V14.5a.5.5 0 0 1 1 0v6a.499.499 0 0 1-.314.464l-5 2A.5.5 0 0 1 18.5 23z" fill="#000000" opacity="1" data-original="#000000" class=""></path><path d="M18.5 23a.5.5 0 0 1-.5-.5v-6a.5.5 0 0 1 1 0v6a.5.5 0 0 1-.5.5zM5.5 17a.5.5 0 0 1-.186-.036l-5-2a.499.499 0 0 1 0-.928l5-2a.496.496 0 0 1 .371 0l5 2a.498.498 0 0 1 .001.928l-5 2A.5.5 0 0 1 5.5 17zm-3.653-2.5L5.5 15.961 9.153 14.5 5.5 13.039z" fill="#000000" opacity="1" data-original="#000000" class=""></path><path d="M5.5 23a.5.5 0 0 1-.186-.036l-5-2A.499.499 0 0 1 0 20.5v-6a.5.5 0 0 1 1 0v5.662l4.5 1.8 4.5-1.8V14.5a.5.5 0 0 1 1 0v6a.499.499 0 0 1-.314.464l-5 2A.5.5 0 0 1 5.5 23z" fill="#000000" opacity="1" data-original="#000000" class=""></path><path d="M5.5 23a.5.5 0 0 1-.5-.5v-6a.5.5 0 0 1 1 0v6a.5.5 0 0 1-.5.5zM12 7a.5.5 0 0 1-.186-.036l-5-2a.499.499 0 0 1 0-.928l5-2a.496.496 0 0 1 .371 0l5 2a.498.498 0 0 1 .001.928l-5 2A.5.5 0 0 1 12 7zM8.347 4.5 12 5.961 15.653 4.5 12 3.039z" fill="#000000" opacity="1" data-original="#000000" class=""></path><path d="M12 13a.5.5 0 0 1-.186-.036l-5-2A.499.499 0 0 1 6.5 10.5v-6a.5.5 0 0 1 1 0v5.662l4.5 1.8 4.5-1.8V4.5a.5.5 0 0 1 1 0v6a.499.499 0 0 1-.314.464l-5 2A.5.5 0 0 1 12 13z" fill="#000000" opacity="1" data-original="#000000" class=""></path><path d="M12 13a.5.5 0 0 1-.5-.5v-6a.5.5 0 0 1 1 0v6a.5.5 0 0 1-.5.5z" fill="#000000" opacity="1" data-original="#000000" class=""></path></g></svg>