<svg xmlns="http://www.w3.org/2000/svg" width="16" height="16" viewBox="0 0 16 16" fill="none">
<g clip-path="url(#clip0_246_16001)">
<path d="M13.6566 2.34343C12.1448 0.83165 10.138 0 8 0C5.86195 0 3.85522 0.83165 2.34343 2.34343C0.83165 3.85522 0 5.86195 0 8C0 10.138 0.83165 12.1448 2.34343 13.6566C3.85522 15.1684 5.86195 16 8 16C10.138 16 12.1448 15.1684 13.6566 13.6566C15.1684 12.1448 16 10.138 16 8C16 5.86195 15.1684 3.85522 13.6566 2.34343ZM13.0135 13.0135C11.6734 14.3535 9.89226 15.0909 8 15.0909C6.10774 15.0909 4.3266 14.3535 2.98653 13.0135C0.222222 10.2492 0.222222 5.75084 2.98653 2.98653C4.3266 1.64646 6.10774 0.909091 8 0.909091C9.89226 0.909091 11.6734 1.64646 13.0135 2.98653C15.7778 5.75084 15.7778 10.2492 13.0135 13.0135Z" fill="white"/>
<path d="M11.5242 4.47466C11.3457 4.29621 11.0595 4.29621 10.8811 4.47466L7.99893 7.35681L5.11678 4.47466C4.93833 4.29621 4.65213 4.29621 4.47368 4.47466C4.29523 4.65311 4.29523 4.93931 4.47368 5.11776L7.35584 7.99991L4.47368 10.8821C4.29523 11.0605 4.29523 11.3467 4.47368 11.5252C4.56122 11.6127 4.67907 11.6598 4.79355 11.6598C4.90803 11.6598 5.02587 11.6161 5.11341 11.5252L7.99557 8.64301L10.8777 11.5252C10.9653 11.6127 11.0831 11.6598 11.1976 11.6598C11.3154 11.6598 11.4299 11.6161 11.5175 11.5252C11.6959 11.3467 11.6959 11.0605 11.5175 10.8821L8.64203 7.99991L11.5242 5.11776C11.7026 4.93931 11.7026 4.65311 11.5242 4.47466Z" fill="white"/>
</g>
<defs>
<clipPath id="clip0_246_16001">
<rect width="16" height="16" fill="white"/>
</clipPath>
</defs>
</svg>