<svg width="16" height="16" viewBox="0 0 16 16" fill="none" xmlns="http://www.w3.org/2000/svg">
<path d="M5.83474 9.85827C5.43787 9.85827 5.04991 9.75764 4.71993 9.56911C4.38994 9.38058 4.13275 9.11262 3.98087 8.7991C3.82899 8.48559 3.78926 8.14061 3.86668 7.80779C3.94411 7.47496 4.13522 7.16924 4.41585 6.92929C4.69648 6.68934 5.05403 6.52593 5.44327 6.45973C5.83252 6.39352 6.23598 6.4275 6.60264 6.55736C6.9693 6.68722 7.28269 6.90714 7.50318 7.18929C7.72367 7.47144 7.84136 7.80317 7.84136 8.14251C7.84136 8.59756 7.62995 9.03397 7.25363 9.35573C6.87732 9.6775 6.36693 9.85827 5.83474 9.85827Z" stroke="#393939" stroke-miterlimit="10" stroke-linecap="round" stroke-linejoin="round"/>
<path d="M3.82793 8.1416H1" stroke="#393939" stroke-miterlimit="10" stroke-linecap="round" stroke-linejoin="round"/>
<path d="M14.9745 7.99988H10" stroke="#393939" stroke-miterlimit="10" stroke-linecap="round" stroke-linejoin="round"/>
<path d="M10.1653 15.2848C10.5621 15.2848 10.9501 15.1842 11.2801 14.9956C11.6101 14.8071 11.8673 14.5391 12.0191 14.2256C12.171 13.9121 12.2107 13.5671 12.1333 13.2343C12.0559 12.9015 11.8648 12.5958 11.5841 12.3558C11.3035 12.1159 10.946 11.9524 10.5567 11.8862C10.1675 11.82 9.76402 11.854 9.39736 11.9839C9.0307 12.1137 8.71731 12.3336 8.49682 12.6158C8.27633 12.898 8.15864 13.2297 8.15864 13.569C8.15864 14.0241 8.37005 14.4605 8.74637 14.7822C9.12268 15.104 9.63307 15.2848 10.1653 15.2848V15.2848Z" stroke="#393939" stroke-miterlimit="10" stroke-linecap="round" stroke-linejoin="round"/>
<path d="M12.1721 13.5685H15" stroke="#393939" stroke-miterlimit="10" stroke-linecap="round" stroke-linejoin="round"/>
<path d="M1.00007 13.5685H5.97461" stroke="black" stroke-miterlimit="10" stroke-linecap="round" stroke-linejoin="round"/>
<path d="M10.156 4.43151C9.75916 4.43151 9.3712 4.33088 9.04122 4.14235C8.71123 3.95382 8.45404 3.68586 8.30216 3.37234C8.15028 3.05883 8.11055 2.71385 8.18797 2.38103C8.2654 2.0482 8.45651 1.74249 8.73714 1.50253C9.01777 1.26258 9.37531 1.09917 9.76456 1.03297C10.1538 0.966766 10.5573 1.00074 10.9239 1.1306C11.2906 1.26047 11.604 1.48038 11.8245 1.76253C12.045 2.04469 12.1626 2.37641 12.1626 2.71575C12.1626 3.1708 11.9512 3.60721 11.5749 3.92898C11.1986 4.25074 10.6882 4.43151 10.156 4.43151V4.43151Z" stroke="#393939" stroke-miterlimit="10" stroke-linecap="round" stroke-linejoin="round"/>
<path d="M12.1719 2.71484H14.9998" stroke="#393939" stroke-miterlimit="10" stroke-linecap="round" stroke-linejoin="round"/>
<path d="M1 2.71484H5.97454" stroke="#393939" stroke-miterlimit="10" stroke-linecap="round" stroke-linejoin="round"/>
</svg>
