<svg width="24" height="16" viewBox="0 0 24 16" fill="none" xmlns="http://www.w3.org/2000/svg">
<path fill-rule="evenodd" clip-rule="evenodd" d="M0 1.33333C0 0.59696 0.59696 0 1.33333 0H22.6667C23.4031 0 24 0.59696 24 1.33333C24 2.06971 23.4031 2.66667 22.6667 2.66667H1.33333C0.59696 2.66667 0 2.06971 0 1.33333ZM4 8C4 7.2636 4.59696 6.66667 5.33333 6.66667H18.6667C19.4031 6.66667 20 7.2636 20 8C20 8.7364 19.4031 9.33333 18.6667 9.33333H5.33333C4.59696 9.33333 4 8.7364 4 8ZM8 14.6667C8 13.9303 8.59696 13.3333 9.33333 13.3333H14.6667C15.4031 13.3333 16 13.9303 16 14.6667C16 15.4031 15.4031 16 14.6667 16H9.33333C8.59696 16 8 15.4031 8 14.6667Z" fill="black"/>
</svg>
