<svg xmlns="http://www.w3.org/2000/svg" width="16" height="17" viewBox="0 0 16 17" fill="none">
    <path fill-rule="evenodd" clip-rule="evenodd"
        d="M8 1.73077C4.26146 1.73077 1.23077 4.76146 1.23077 8.5C1.23077 12.2385 4.26146 15.2692 8 15.2692C11.7385 15.2692 14.7692 12.2385 14.7692 8.5C14.7692 4.76146 11.7385 1.73077 8 1.73077ZM0 8.5C0 4.08172 3.58172 0.5 8 0.5C12.4183 0.5 16 4.08172 16 8.5C16 12.9183 12.4183 16.5 8 16.5C3.58172 16.5 0 12.9183 0 8.5ZM8 7.88462C8.33986 7.88462 8.61539 8.16014 8.61539 8.5V11.3718C8.61539 11.7117 8.33986 11.9872 8 11.9872C7.66014 11.9872 7.38462 11.7117 7.38462 11.3718V8.5C7.38462 8.16014 7.66014 7.88462 8 7.88462ZM8 5.21795C7.54683 5.21795 7.17949 5.58531 7.17949 6.03846C7.17949 6.49161 7.54683 6.85897 8 6.85897H8.00821C8.46137 6.85897 8.82872 6.49161 8.82872 6.03846C8.82872 5.58531 8.46137 5.21795 8.00821 5.21795H8Z"
        fill="#5C5C5C" />
</svg>