<svg xmlns="http://www.w3.org/2000/svg" width="25" height="40" viewBox="0 0 25 40" fill="none">
  <g filter="url(#filter0_d_252_12442)">
    <path d="M10.9941 20C10.9941 19.6044 11.1114 19.2178 11.3312 18.8889C11.551 18.56 11.8633 18.3036 12.2288 18.1522C12.5942 18.0009 12.9964 17.9613 13.3843 18.0384C13.7723 18.1156 14.1286 18.3061 14.4084 18.5858C14.6881 18.8655 14.8785 19.2219 14.9557 19.6098C15.0329 19.9978 14.9933 20.3999 14.8419 20.7654C14.6905 21.1308 14.4342 21.4432 14.1053 21.6629C13.7764 21.8827 13.3897 22 12.9941 22C12.4637 22 11.955 21.7893 11.5799 21.4142C11.2049 21.0391 10.9941 20.5304 10.9941 20ZM14.9941 28C14.9941 27.6044 14.8768 27.2178 14.6571 26.8889C14.4373 26.56 14.125 26.3036 13.7595 26.1522C13.3941 26.0009 12.9919 25.9613 12.604 26.0384C12.216 26.1156 11.8596 26.3061 11.5799 26.5858C11.3002 26.8655 11.1097 27.2219 11.0326 27.6098C10.9554 27.9978 10.995 28.3999 11.1464 28.7654C11.2978 29.1308 11.5541 29.4432 11.883 29.6629C12.2119 29.8827 12.5986 30 12.9941 30C13.5246 30 14.0333 29.7893 14.4084 29.4142C14.7834 29.0391 14.9941 28.5304 14.9941 28ZM10.9941 12C10.9941 12.3956 11.1114 12.7822 11.3312 13.1111C11.551 13.44 11.8633 13.6964 12.2288 13.8478C12.5942 13.9991 12.9964 14.0387 13.3843 13.9616C13.7723 13.8844 14.1286 13.6939 14.4084 13.4142C14.6881 13.1345 14.8785 12.7781 14.9557 12.3902C15.0329 12.0022 14.9933 11.6001 14.8419 11.2346C14.6905 10.8692 14.4342 10.5568 14.1053 10.3371C13.7764 10.1173 13.3897 10 12.9941 10C12.4637 10 11.955 10.2107 11.5799 10.5858C11.2049 10.9609 10.9941 11.4696 10.9941 12Z" fill="white"/>
  </g>
  <defs>
    <filter id="filter0_d_252_12442" x="0.994141" y="0" width="24" height="40" filterUnits="userSpaceOnUse" color-interpolation-filters="sRGB">
      <feFlood flood-opacity="0" result="BackgroundImageFix"/>
      <feColorMatrix in="SourceAlpha" type="matrix" values="0 0 0 0 0 0 0 0 0 0 0 0 0 0 0 0 0 0 127 0" result="hardAlpha"/>
      <feOffset/>
      <feGaussianBlur stdDeviation="5"/>
      <feComposite in2="hardAlpha" operator="out"/>
      <feColorMatrix type="matrix" values="0 0 0 0 0 0 0 0 0 0 0 0 0 0 0 0 0 0 0.8 0"/>
      <feBlend mode="normal" in2="BackgroundImageFix" result="effect1_dropShadow_252_12442"/>
      <feBlend mode="normal" in="SourceGraphic" in2="effect1_dropShadow_252_12442" result="shape"/>
    </filter>
  </defs>
</svg>