<svg width="17" height="17" viewBox="0 0 17 17" fill="none" xmlns="http://www.w3.org/2000/svg">
<g clip-path="url(#clip0_167_8348)">
<path d="M11.9734 13.0129L9.98006 7.43953C9.84006 7.07286 9.52673 6.8462 9.16673 6.8462C8.80673 6.8462 8.50006 7.07286 8.34673 7.45286L6.36006 13.0129C6.26673 13.2729 6.40006 13.5595 6.66006 13.6529C6.92006 13.7462 7.20673 13.6129 7.30006 13.3529L7.7134 12.1995H10.6134L11.0267 13.3529C11.1001 13.5595 11.2934 13.6862 11.5001 13.6862C11.5534 13.6862 11.6134 13.6795 11.6667 13.6595C11.9267 13.5662 12.0601 13.2795 11.9667 13.0195L11.9734 13.0129ZM8.08006 11.1929L9.1734 8.13286L10.2667 11.1929H8.08006ZM6.38006 5.33286C4.87339 7.71286 3.51339 9.15286 1.86006 10.1129C1.78006 10.1595 1.69339 10.1795 1.61339 10.1795C1.44006 10.1795 1.27339 10.0929 1.18006 9.93286C1.04006 9.69286 1.12006 9.3862 1.36006 9.25286C2.76005 8.43953 3.90673 7.27286 5.1934 5.33953H1.00006C0.726728 5.33953 0.500061 5.11286 0.500061 4.83953C0.500061 4.5662 0.726728 4.33953 1.00006 4.33953H3.50006V3.01953C3.50006 2.7462 3.72673 2.51953 4.00006 2.51953C4.27339 2.51953 4.50006 2.7462 4.50006 3.01953V4.33953H7.00006C7.2734 4.33953 7.50006 4.5662 7.50006 4.83953C7.50006 5.11286 7.2734 5.33953 7.00006 5.33953H6.3734L6.38006 5.33286ZM6.40673 10.1795C6.32006 10.1795 6.2334 10.1595 6.1534 10.1129C5.72006 9.85953 5.30006 9.57953 4.90672 9.2862C4.68672 9.11953 4.64006 8.8062 4.80673 8.5862C4.97339 8.3662 5.28673 8.31953 5.50673 8.4862C5.86673 8.75953 6.26006 9.01286 6.66006 9.2462C6.90006 9.3862 6.98006 9.69286 6.84006 9.93286C6.74673 10.0929 6.58006 10.1795 6.40673 10.1795Z" fill="black"/>
</g>
<defs>
<clipPath id="clip0_167_8348">
<rect width="16" height="16" fill="white" transform="translate(0.5 0.519531)"/>
</clipPath>
</defs>
</svg>
