<svg width="16" height="16" viewBox="0 0 16 16" fill="none" xmlns="http://www.w3.org/2000/svg">
<g clip-path="url(#clip0_167_8337)">
<path fill-rule="evenodd" clip-rule="evenodd" d="M8 7.55078C7.24054 7.55078 6.625 6.92125 6.625 6.14453C6.625 5.36781 7.24054 4.73828 8 4.73828C8.75946 4.73828 9.375 5.36781 9.375 6.14453C9.375 6.92125 8.75946 7.55078 8 7.55078ZM8 3.80078C6.73454 3.80078 5.70833 4.84984 5.70833 6.14453C5.70833 7.43922 6.73454 8.48828 8 8.48828C9.26546 8.48828 10.2917 7.43922 10.2917 6.14453C10.2917 4.84984 9.26546 3.80078 8 3.80078ZM8 14.1133C7.23779 14.1175 3.41667 8.10437 3.41667 6.14453C3.41667 3.55609 5.46863 1.45703 8 1.45703C10.5314 1.45703 12.5833 3.55609 12.5833 6.14453C12.5833 8.07812 8.75029 14.1175 8 14.1133ZM8 0.519531C4.96263 0.519531 2.5 3.03812 2.5 6.14453C2.5 8.49672 7.08563 15.5247 8 15.5195C8.90017 15.5247 13.5 8.46484 13.5 6.14453C13.5 3.03812 11.0374 0.519531 8 0.519531Z" fill="black"/>
</g>
<defs>
<clipPath id="clip0_167_8337">
<rect width="15" height="15" fill="white" transform="translate(0.5 0.519531)"/>
</clipPath>
</defs>
</svg>
