<svg width="3" height="16" viewBox="0 0 3 16" fill="none" xmlns="http://www.w3.org/2000/svg">
<path d="M0 8.00001C0 7.70334 0.0879738 7.41333 0.252796 7.16665C0.417619 6.91998 0.651888 6.72772 0.925978 6.61418C1.20007 6.50065 1.50167 6.47095 1.79264 6.52883C2.08361 6.5867 2.35089 6.72957 2.56067 6.93934C2.77045 7.14912 2.91331 7.4164 2.97119 7.70737C3.02906 7.99834 2.99936 8.29994 2.88583 8.57404C2.7723 8.84812 2.58004 9.08239 2.33336 9.24722C2.08669 9.41204 1.79668 9.50001 1.5 9.50001C1.10218 9.50001 0.720646 9.34198 0.439341 9.06067C0.158036 8.77937 0 8.39783 0 8.00001ZM1.5 15.5C1.79668 15.5 2.08669 15.4121 2.33336 15.2472C2.58004 15.0824 2.7723 14.8481 2.88583 14.5741C2.99936 14.3 3.02906 13.9984 2.97119 13.7074C2.91331 13.4164 2.77045 13.1491 2.56067 12.9394C2.35089 12.7296 2.08361 12.5867 1.79264 12.5288C1.50167 12.471 1.20007 12.5007 0.925978 12.6142C0.651888 12.7277 0.417619 12.92 0.252796 13.1667C0.0879738 13.4133 0 13.7034 0 14C0 14.3979 0.158036 14.7794 0.439341 15.0607C0.720646 15.342 1.10218 15.5 1.5 15.5ZM1.5 3.49999C1.79668 3.5 2.08669 3.41202 2.33336 3.2472C2.58004 3.08238 2.7723 2.84811 2.88583 2.57402C2.99936 2.29993 3.02906 1.99833 2.97119 1.70735C2.91331 1.41638 2.77045 1.14911 2.56067 0.939326C2.35089 0.729548 2.08361 0.586686 1.79264 0.528808C1.50167 0.47093 1.20007 0.500635 0.925978 0.614166C0.651888 0.727698 0.417619 0.919958 0.252796 1.16663C0.0879738 1.41331 0 1.70332 0 1.99999C0 2.39782 0.158036 2.77935 0.439341 3.06065C0.720646 3.34196 1.10218 3.49999 1.5 3.49999Z" fill="black"/>
</svg>
