<svg width="59" height="58" viewBox="0 0 59 58" fill="none" xmlns="http://www.w3.org/2000/svg">
<rect x="9.25" y="9.25" width="39.5" height="39.5" rx="19.75" fill="white" stroke="#5C5C5C" stroke-width="0.5"/>
<g opacity="0.5">
<path d="M33.6667 22.667H24.3333C23.0447 22.667 22 23.7117 22 25.0003V35.5003C22 36.789 23.0447 37.8337 24.3333 37.8337H33.6667C34.9553 37.8337 36 36.789 36 35.5003V25.0003C36 23.7117 34.9553 22.667 33.6667 22.667Z" stroke="#5C5C5C" stroke-width="1.5" stroke-linecap="round" stroke-linejoin="round"/>
<path d="M26.6668 27.333V33.1663" stroke="#5C5C5C" stroke-width="1.5" stroke-linecap="round" stroke-linejoin="round"/>
<path d="M31.3333 27.333V33.1663" stroke="#5C5C5C" stroke-width="1.5" stroke-linecap="round" stroke-linejoin="round"/>
<path d="M33.6664 37.833V38.9997" stroke="#5C5C5C" stroke-width="1.5" stroke-linecap="round" stroke-linejoin="round"/>
<path d="M24.3334 37.833V38.9997" stroke="#5C5C5C" stroke-width="1.5" stroke-linecap="round" stroke-linejoin="round"/>
<path d="M26.6668 19.1667C26.6668 18.5223 27.1891 18 27.8335 18H30.1668C30.8112 18 31.3335 18.5223 31.3335 19.1667V22.6667H26.6668V19.1667Z" stroke="#5C5C5C" stroke-width="1.5" stroke-linecap="round" stroke-linejoin="round"/>
</g>
<rect x="9.25" y="8.25" width="11.5" height="11.5" rx="5.75" fill="white"/>
<rect x="9.25" y="8.25" width="11.5" height="11.5" rx="5.75" stroke="#5C5C5C" stroke-width="0.5"/>
<path d="M16.9268 15.9269C16.8293 16.0244 16.6729 16.0244 16.5753 15.9269L15 14.3517L13.4247 15.9269C13.3271 16.0244 13.1707 16.0244 13.0732 15.9269C12.9756 15.8293 12.9756 15.6729 13.0732 15.5754L14.6485 14.0002L13.0732 12.4251C12.9756 12.3275 12.9756 12.1711 13.0732 12.0736C13.121 12.0258 13.1854 12 13.248 12C13.3106 12 13.375 12.0239 13.4228 12.0736L14.9982 13.6488L16.5735 12.0736C16.6213 12.0258 16.6858 12 16.7483 12C16.8127 12 16.8753 12.0239 16.9232 12.0736C17.0207 12.1711 17.0207 12.3275 16.9232 12.4251L15.3515 14.0002L16.9268 15.5754C17.0244 15.6729 17.0244 15.8293 16.9268 15.9269Z" fill="#5C5C5C"/>
</svg>
