<svg xmlns="http://www.w3.org/2000/svg" width="20" height="20" viewBox="0 0 20 20" fill="none">
    <path fill-rule="evenodd" clip-rule="evenodd"
        d="M0.579359 2.77047L2.3781 0.976699C2.87435 0.481074 3.67999 0.481074 4.17687 0.976699L6.87498 4.56421C7.28686 5.17109 7.37123 5.86233 6.87498 6.35796L5.77374 7.45608C6.58999 8.54983 7.56999 9.74233 8.67312 10.8423C9.92062 12.0861 11.3081 13.2167 12.5556 14.1455L13.62 13.0848C14.1162 12.5892 14.8094 12.673 15.4187 13.0848L19.0162 15.7755C19.6194 16.1911 19.5131 17.0736 19.0162 17.5692L17.2175 19.3623C16.2237 20.3536 14.9319 20.0361 13.62 19.3623C13.62 19.3623 9.64936 17.1398 6.24998 13.7498C3.05248 10.5611 0.579359 6.35796 0.579359 6.35796C0.0637341 4.94358 -0.414391 3.76109 0.579359 2.77047Z"
        fill="black" />
</svg>