<svg width="28" height="28" viewBox="0 0 28 28" fill="none" xmlns="http://www.w3.org/2000/svg">
<circle cx="13.999" cy="14" r="13.5" fill="black" stroke="#D9D9D9"/>
<path d="M11.1855 19V17.8864L14.6308 14.3168C14.9987 13.929 15.3019 13.5893 15.5406 13.2976C15.7825 13.0026 15.9632 12.7225 16.0825 12.4574C16.2018 12.1922 16.2615 11.9105 16.2615 11.6122C16.2615 11.2741 16.1819 10.9825 16.0228 10.7372C15.8637 10.4886 15.6466 10.2981 15.3715 10.1655C15.0964 10.0296 14.7865 9.96165 14.4419 9.96165C14.0773 9.96165 13.7591 10.0362 13.4873 10.1854C13.2155 10.3345 13.0067 10.545 12.8609 10.8168C12.7151 11.0885 12.6421 11.4067 12.6421 11.7713H11.1755C11.1755 11.1515 11.318 10.6096 11.6031 10.1456C11.8881 9.68158 12.2792 9.32197 12.7764 9.06676C13.2735 8.80824 13.8386 8.67898 14.4717 8.67898C15.1114 8.67898 15.6748 8.80658 16.162 9.06179C16.6526 9.31368 17.0354 9.65838 17.3105 10.0959C17.5856 10.5301 17.7231 11.0206 17.7231 11.5675C17.7231 11.9453 17.6518 12.3149 17.5093 12.6761C17.3701 13.0374 17.1265 13.4401 16.7785 13.8842C16.4305 14.325 15.9466 14.8603 15.3268 15.4901L13.3034 17.608V17.6825H17.8872V19H11.1855Z" fill="white"/>
</svg>
