<svg width="14" height="12" viewBox="0 0 14 12" fill="none" xmlns="http://www.w3.org/2000/svg">
<path d="M13.7782 6.39135L13.7782 6.39129C13.7876 6.37789 13.7923 6.37164 13.7974 6.36354C13.8007 6.35816 13.8033 6.35343 13.8071 6.3465C13.8089 6.34327 13.8109 6.33956 13.8134 6.33508L13.8135 6.33496C13.8162 6.33014 13.8183 6.32641 13.8201 6.32326C13.8233 6.31755 13.8255 6.31378 13.8279 6.30889L13.8279 6.30885C13.8308 6.30306 13.8331 6.29785 13.8363 6.29032C13.8377 6.2871 13.8393 6.28346 13.8412 6.27916L13.8413 6.27895C13.8432 6.27462 13.8448 6.27105 13.8462 6.26794C13.8493 6.26115 13.8513 6.25654 13.8535 6.25103C13.8557 6.24531 13.8574 6.24019 13.8598 6.23278C13.8608 6.22961 13.862 6.22602 13.8634 6.22178L13.8635 6.22156C13.865 6.21705 13.8663 6.21326 13.8674 6.20991C13.8701 6.20219 13.8719 6.19684 13.8737 6.19056L13.8737 6.1905C13.8752 6.18503 13.8762 6.18045 13.8778 6.17364C13.8786 6.17014 13.8795 6.16604 13.8807 6.16093L13.8808 6.16063C13.8819 6.15588 13.8828 6.1519 13.8837 6.14839C13.8856 6.1404 13.887 6.13488 13.8882 6.12841C13.8895 6.12143 13.8903 6.11522 13.8914 6.10643C13.8919 6.10269 13.8924 6.09848 13.8931 6.09355L13.7782 6.39135ZM13.7782 6.39135C13.7738 6.39761 13.7712 6.40157 13.7691 6.40461C13.7665 6.40845 13.765 6.41083 13.7621 6.41452L13.7782 6.39135ZM13.8808 5.83934L13.8807 5.8391C13.8794 5.83377 13.8785 5.82956 13.8777 5.82598C13.8762 5.81935 13.8752 5.81488 13.8737 5.80946L13.8737 5.8094C13.8711 5.80046 13.8684 5.79314 13.8635 5.77849L13.8635 5.77843C13.8618 5.77331 13.8604 5.7692 13.8593 5.76568L13.8808 5.83934ZM13.8808 5.83934C13.8819 5.84409 13.8828 5.84807 13.8837 5.85158C13.8856 5.85956 13.887 5.86509 13.8882 5.87155L13.8808 5.83934ZM13.8413 5.72102L13.8412 5.7208C13.8393 5.71651 13.8377 5.71287 13.8364 5.70966C13.8331 5.70212 13.8308 5.69691 13.8279 5.69111L13.8279 5.69108C13.8256 5.68631 13.8236 5.68288 13.8206 5.67769C13.8187 5.6744 13.8165 5.67039 13.8134 5.66489C13.8109 5.66041 13.8089 5.65669 13.8071 5.65346L13.8413 5.72102ZM13.8413 5.72102C13.8432 5.72535 13.8448 5.72893 13.8462 5.73204M13.8413 5.72102L13.8462 5.73204M13.7782 5.60867L13.7782 5.60862C13.7738 5.60236 13.7712 5.5984 13.7691 5.59535C13.7665 5.59152 13.765 5.58914 13.7621 5.58545C13.7493 5.56876 13.7361 5.55301 13.7224 5.53829L13.7221 5.53795L13.722 5.53786L8.82196 0.287898L8.89506 0.219666L8.82196 0.287898C8.58813 0.0373675 8.21204 0.0373673 7.97821 0.287898C7.7407 0.542364 7.7407 0.957633 7.97821 1.2121L11.6833 5.18178L11.8403 5.35001H11.6102L0.699996 5.35001C0.375009 5.35001 0.1 5.63441 0.1 6C0.1 6.36559 0.375009 6.64999 0.699996 6.64999L11.6102 6.64999H11.8403L11.6833 6.81822L7.97821 10.7879C7.7407 11.0424 7.7407 11.4576 7.97821 11.7121C8.21204 11.9626 8.58813 11.9626 8.82196 11.7121L13.722 6.4621L13.7221 6.46201L13.7223 6.46175L13.7782 5.60867ZM13.7782 5.60867C13.7811 5.61276 13.7835 5.61618 13.7856 5.6192C13.7905 5.62606 13.7939 5.6308 13.7974 5.63643L13.7782 5.60867ZM13.8462 5.73204C13.8493 5.73882 13.8514 5.74343 13.8535 5.74893L13.8462 5.73204Z" fill="black" stroke="white" stroke-width="0.2"/>
</svg>
