<svg width="24" height="24" viewBox="0 0 24 24" fill="none" xmlns="http://www.w3.org/2000/svg">
<path d="M3.07882 0.00235501C3.05642 0.00642819 3.03402 0.0125372 3.01366 0.0186467C2.77132 0.0736312 2.60025 0.291533 2.60636 0.539981V5.23198H7.29837C7.48572 5.23402 7.66086 5.13627 7.75657 4.97335C7.85025 4.81044 7.85025 4.61086 7.75657 4.44795C7.66086 4.28503 7.48572 4.18728 7.29837 4.18932H4.33328C6.30865 2.25672 9.00696 1.06131 11.9904 1.06131C18.0427 1.06131 22.9384 5.95696 22.9384 12.0093C22.9384 18.0617 18.0427 22.9573 11.9904 22.9573C5.93801 22.9573 1.04236 18.0617 1.04236 12.0093C1.04236 10.1989 1.48835 8.49439 2.26424 6.99149L1.33561 6.51903C0.484373 8.16449 -0.000305176 10.0319 -0.000305176 12.0093C-0.000305176 18.6258 5.37391 24 11.9904 24C18.6068 24 23.981 18.6258 23.981 12.0093C23.981 5.39286 18.6068 0.0186467 11.9904 0.0186467C8.74425 0.0186467 5.80768 1.32402 3.64903 3.42361V0.539981C3.65514 0.389283 3.59405 0.244694 3.48611 0.142871C3.37615 0.0390116 3.22748 -0.0119003 3.07882 0.00235501ZM11.9904 1.58265C11.7032 1.58265 11.469 1.81684 11.469 2.10398C11.469 2.39112 11.7032 2.62532 11.9904 2.62532C12.2775 2.62532 12.5117 2.39112 12.5117 2.10398C12.5117 1.81684 12.2775 1.58265 11.9904 1.58265ZM16.943 2.90227C16.6559 2.90227 16.4217 3.13647 16.4217 3.42361C16.4217 3.71075 16.6559 3.94494 16.943 3.94494C17.2302 3.94494 17.4644 3.71075 17.4644 3.42361C17.4644 3.13647 17.2302 2.90227 16.943 2.90227ZM20.5761 6.53532C20.2889 6.53532 20.0548 6.76951 20.0548 7.05665C20.0548 7.34379 20.2889 7.57799 20.5761 7.57799C20.8632 7.57799 21.0974 7.34379 21.0974 7.05665C21.0974 6.76951 20.8632 6.53532 20.5761 6.53532ZM12.0392 7.96899L10.1005 9.33749V10.4942L11.9415 9.19086H12.023V15.3165H13.1634V7.96899H12.0392ZM2.08503 11.488C1.79789 11.488 1.5637 11.7222 1.5637 12.0093C1.5637 12.2965 1.79789 12.5307 2.08503 12.5307C2.37217 12.5307 2.60636 12.2965 2.60636 12.0093C2.60636 11.7222 2.37217 11.488 2.08503 11.488ZM21.8957 11.488C21.6086 11.488 21.3744 11.7222 21.3744 12.0093C21.3744 12.2965 21.6086 12.5307 21.8957 12.5307C22.1829 12.5307 22.417 12.2965 22.417 12.0093C22.417 11.7222 22.1829 11.488 21.8957 11.488ZM3.40466 16.4407C3.11752 16.4407 2.88332 16.6749 2.88332 16.962C2.88332 17.2491 3.11752 17.4833 3.40466 17.4833C3.6918 17.4833 3.92599 17.2491 3.92599 16.962C3.92599 16.6749 3.6918 16.4407 3.40466 16.4407ZM20.5761 16.4407C20.2889 16.4407 20.0548 16.6749 20.0548 16.962C20.0548 17.2491 20.2889 17.4833 20.5761 17.4833C20.8632 17.4833 21.0974 17.2491 21.0974 16.962C21.0974 16.6749 20.8632 16.4407 20.5761 16.4407ZM7.0377 20.0737C6.75056 20.0737 6.51637 20.3079 6.51637 20.595C6.51637 20.8822 6.75056 21.1164 7.0377 21.1164C7.32484 21.1164 7.55903 20.8822 7.55903 20.595C7.55903 20.3079 7.32484 20.0737 7.0377 20.0737ZM16.943 20.0737C16.6559 20.0737 16.4217 20.3079 16.4217 20.595C16.4217 20.8822 16.6559 21.1164 16.943 21.1164C17.2302 21.1164 17.4644 20.8822 17.4644 20.595C17.4644 20.3079 17.2302 20.0737 16.943 20.0737ZM11.9904 21.3933C11.7032 21.3933 11.469 21.6275 11.469 21.9147C11.469 22.2018 11.7032 22.436 11.9904 22.436C12.2775 22.436 12.5117 22.2018 12.5117 21.9147C12.5117 21.6275 12.2775 21.3933 11.9904 21.3933Z" fill="black"/>
</svg>
