<svg width="26" height="27" viewBox="0 0 26 27" fill="none" xmlns="http://www.w3.org/2000/svg">
<circle cx="13" cy="13.5" r="13" fill="black"/>
<path d="M12.8466 9.23513L10.483 11.5987C10.3839 11.6836 10.3723 11.8328 10.4572 11.932C10.5421 12.0311 10.6914 12.0427 10.7905 11.9578C10.7997 11.9498 10.8084 11.9412 10.8163 11.932L12.7781 9.97256V19.3301C12.7781 19.4606 12.8839 19.5664 13.0144 19.5664C13.145 19.5664 13.2508 19.4606 13.2508 19.3301V9.97256L15.2102 11.932C15.2951 12.0311 15.4443 12.0427 15.5435 11.9578C15.6426 11.8728 15.6542 11.7236 15.5692 11.6245C15.5613 11.6152 15.5527 11.6066 15.5435 11.5987L13.1799 9.23511C13.0877 9.14348 12.9388 9.14348 12.8466 9.23513Z" fill="white" stroke="white" stroke-width="0.66"/>
</svg>
