<svg xmlns="http://www.w3.org/2000/svg" width="100" height="27" viewBox="0 0 100 27" fill="none">
  <g clip-path="url(#clip0_99_36994)">
    <path d="M24.1605 24.6176C22.0724 21.1799 20.0094 17.7319 17.8964 14.3095C17.5559 13.7613 17.5509 13.3873 17.8813 12.8339C19.9544 9.43204 21.9873 6.00453 24.0353 2.58726C24.8915 1.15785 24.521 0.194661 22.9287 0.122934C18.3771 -0.087123 13.8205 0.0255905 9.26385 0.0614539C8.20732 0.0717005 7.48628 0.630145 6.98054 1.46525C4.73228 5.18479 2.54411 8.93508 0.290843 12.6495C-0.134774 13.3565 -0.0646724 13.956 0.315879 14.5861C2.52909 18.2442 4.83243 21.8408 6.94549 25.5552C7.49629 26.5184 8.28243 27.0512 9.4992 27C11.6123 26.9078 13.7303 26.9744 15.8484 26.9744V26.9487C18.2168 26.9487 20.5853 26.9897 22.9537 26.9334C24.4158 26.9026 24.9166 25.8626 24.1554 24.6176H24.1605ZM9.1587 22.2353C8.77314 22.8552 8.37256 22.9525 7.95696 22.2711C6.27452 19.484 4.60209 16.6918 2.90964 13.9098C2.69433 13.5615 2.82952 13.2899 2.99977 13.003C4.89252 9.83166 6.78025 6.66032 8.68802 3.49409C9.03853 2.91003 9.54426 2.58214 10.2953 2.60775C11.8726 2.65899 13.4499 2.62312 15.0272 2.62312C16.5694 2.62312 18.1117 2.60775 19.6539 2.62825C20.8306 2.64362 20.9608 2.87417 20.3549 3.87834C18.8728 6.3273 17.3556 8.75064 15.8684 11.1893C14.0258 14.2172 12.1981 17.2554 10.3604 20.2884C9.96487 20.9391 9.55928 21.5795 9.1587 22.225V22.2353ZM10.9413 24.2795C12.0679 22.3941 13.0594 20.7239 14.0558 19.0537C14.5215 18.2749 15.0072 17.5167 15.4578 16.7328C15.7182 16.2922 16.0086 16.1078 16.3291 16.6252C17.7512 18.9358 19.1632 21.2567 20.5602 23.5776C20.6604 23.7467 20.6554 23.9874 20.7155 24.2795H10.9413Z" fill="#C1054E"/>
    <path d="M32.4121 22.2095V9.05273H34.3649V15.3339H34.5252L39.953 9.05273H42.4116L37.194 14.9753L42.4316 22.2095H40.0832L35.9022 16.333L34.375 18.121V22.2146H32.4221L32.4121 22.2095Z" fill="white"/>
    <path d="M47.5592 22.4093C46.6028 22.4093 45.7816 22.1993 45.0906 21.7843C44.3996 21.3693 43.8739 20.7801 43.4983 20.0167C43.1278 19.2585 42.9375 18.367 42.9375 17.3423C42.9375 16.3177 43.1228 15.4416 43.4983 14.6679C43.8689 13.8994 44.3946 13.2949 45.0656 12.8645C45.7366 12.4342 46.5227 12.2139 47.424 12.2139C47.9698 12.2139 48.5006 12.3061 49.0163 12.4905C49.5321 12.675 49.9927 12.9619 50.3983 13.3564C50.8089 13.7509 51.1294 14.2632 51.3647 14.8883C51.6001 15.5133 51.7202 16.2767 51.7202 17.1733V17.8547H44.004V16.415H49.8675C49.8675 15.9078 49.7674 15.4621 49.5621 15.0676C49.3618 14.6782 49.0764 14.3657 48.7109 14.1402C48.3453 13.9148 47.9197 13.8021 47.429 13.8021C46.8982 13.8021 46.4376 13.9353 46.042 14.1966C45.6464 14.4579 45.346 14.8012 45.1307 15.2264C44.9204 15.6465 44.8102 16.1076 44.8102 16.5994V17.7215C44.8102 18.3824 44.9254 18.9408 45.1557 19.4019C45.3861 19.863 45.7065 20.2165 46.1171 20.4573C46.5277 20.6981 47.0134 20.8211 47.5642 20.8211C47.9197 20.8211 48.2502 20.7698 48.5456 20.6623C48.8411 20.5598 49.0964 20.401 49.3117 20.1909C49.5271 19.9809 49.6923 19.7196 49.8025 19.4122L51.59 19.7401C51.4448 20.2729 51.1895 20.7442 50.8239 21.1438C50.4584 21.5435 49.9927 21.856 49.4419 22.0763C48.8861 22.2966 48.2552 22.4093 47.5492 22.4093H47.5592Z" fill="white"/>
    <path d="M58.0045 22.4093C57.0481 22.4093 56.2269 22.1993 55.5359 21.7843C54.8449 21.3693 54.3192 20.7801 53.9436 20.0167C53.5731 19.2585 53.3828 18.367 53.3828 17.3423C53.3828 16.3177 53.5681 15.4416 53.9436 14.6679C54.3142 13.8994 54.8399 13.2949 55.5109 12.8645C56.1819 12.4342 56.968 12.2139 57.8693 12.2139C58.4151 12.2139 58.9459 12.3061 59.4616 12.4905C59.9774 12.675 60.438 12.9619 60.8436 13.3564C61.2542 13.7509 61.5747 14.2632 61.81 14.8883C62.0454 15.5133 62.1655 16.2767 62.1655 17.1733V17.8547H54.4494V16.415H60.3129C60.3129 15.9078 60.2127 15.4621 60.0074 15.0676C59.8071 14.6782 59.5217 14.3657 59.1562 14.1402C58.7907 13.9148 58.365 13.8021 57.8743 13.8021C57.3436 13.8021 56.8829 13.9353 56.4873 14.1966C56.0917 14.4579 55.7913 14.8012 55.576 15.2264C55.3657 15.6465 55.2555 16.1076 55.2555 16.5994V17.7215C55.2555 18.3824 55.3707 18.9408 55.601 19.4019C55.8314 19.863 56.1518 20.2165 56.5624 20.4573C56.973 20.6981 57.4587 20.8211 58.0095 20.8211C58.365 20.8211 58.6955 20.7698 58.9909 20.6623C59.2864 20.5598 59.5417 20.401 59.7571 20.1909C59.9724 19.9809 60.1376 19.7196 60.2478 19.4122L62.0354 19.7401C61.8901 20.2729 61.6348 20.7442 61.2692 21.1438C60.9037 21.5435 60.438 21.856 59.8872 22.0763C59.3314 22.2966 58.7005 22.4093 57.9945 22.4093H58.0045Z" fill="white"/>
    <path d="M64.2734 25.9088V12.3422H66.1161V13.9407H66.2763C66.3865 13.7357 66.5417 13.4949 66.752 13.2285C66.9573 12.957 67.2427 12.7213 67.6133 12.5164C67.9788 12.3115 68.4645 12.209 69.0654 12.209C69.8465 12.209 70.5475 12.4088 71.1634 12.8135C71.7793 13.2183 72.26 13.7972 72.6155 14.5555C72.966 15.3137 73.1413 16.2257 73.1413 17.2913C73.1413 18.357 72.966 19.2689 72.6155 20.0323C72.265 20.7906 71.7843 21.3746 71.1734 21.7845C70.5626 22.1944 69.8666 22.3993 69.0804 22.3993C68.4896 22.3993 68.0089 22.2968 67.6383 22.097C67.2678 21.8972 66.9724 21.6615 66.762 21.39C66.5517 21.1185 66.3915 20.8828 66.2763 20.6727H66.1612V25.9088H64.2734ZM66.1261 17.276C66.1261 17.9676 66.2263 18.5773 66.4215 19.0999C66.6218 19.6225 66.9073 20.0323 67.2828 20.3244C67.6583 20.6164 68.119 20.765 68.6598 20.765C69.2006 20.765 69.6963 20.6113 70.0769 20.3039C70.4574 19.9965 70.7428 19.5815 70.9381 19.0538C71.1334 18.5261 71.2335 17.9318 71.2335 17.276C71.2335 16.6202 71.1384 16.0412 70.9481 15.5238C70.7578 15.0063 70.4724 14.5965 70.0869 14.2993C69.7013 14.0022 69.2306 13.8485 68.6598 13.8485C68.089 13.8485 67.6483 13.9919 67.2728 14.2788C66.8972 14.5657 66.6118 14.9653 66.4165 15.4777C66.2213 15.99 66.1261 16.5894 66.1261 17.276Z" fill="white"/>
    <path d="M79.4362 22.4093C78.4798 22.4093 77.6586 22.1993 76.9676 21.7843C76.2766 21.3693 75.7508 20.7801 75.3753 20.0167C75.0047 19.2585 74.8145 18.367 74.8145 17.3423C74.8145 16.3177 74.9997 15.4416 75.3753 14.6679C75.7458 13.8994 76.2716 13.2949 76.9425 12.8645C77.6135 12.4342 78.3996 12.2139 79.301 12.2139C79.8467 12.2139 80.3775 12.3061 80.8933 12.4905C81.409 12.675 81.8697 12.9619 82.2753 13.3564C82.6859 13.7509 83.0063 14.2632 83.2417 14.8883C83.477 15.5133 83.5972 16.2767 83.5972 17.1733V17.8547H75.881V16.415H81.7445C81.7445 15.9078 81.6444 15.4621 81.4391 15.0676C81.2388 14.6782 80.9534 14.3657 80.5878 14.1402C80.2223 13.9148 79.7967 13.8021 79.306 13.8021C78.7752 13.8021 78.3145 13.9353 77.919 14.1966C77.5234 14.4579 77.2229 14.8012 77.0076 15.2264C76.7973 15.6465 76.6872 16.1076 76.6872 16.5994V17.7215C76.6872 18.3824 76.8023 18.9408 77.0327 19.4019C77.263 19.863 77.5835 20.2165 77.9941 20.4573C78.4047 20.6981 78.8904 20.8211 79.4412 20.8211C79.7967 20.8211 80.1272 20.7698 80.4226 20.6623C80.718 20.5598 80.9734 20.401 81.1887 20.1909C81.404 19.9809 81.5692 19.7196 81.6794 19.4122L83.467 19.7401C83.3218 20.2729 83.0664 20.7442 82.7009 21.1438C82.3354 21.5435 81.8697 21.856 81.3189 22.0763C80.7631 22.2966 80.1322 22.4093 79.4261 22.4093H79.4362Z" fill="white"/>
    <path d="M85.7042 22.2095V12.3419H87.5319V13.9097H87.632C87.8073 13.3769 88.1227 12.9619 88.5684 12.6545C89.019 12.3471 89.5248 12.1934 90.0956 12.1934C90.2158 12.1934 90.356 12.1934 90.5162 12.2087C90.6764 12.219 90.8066 12.2292 90.8968 12.2395V14.0787C90.8216 14.0583 90.6865 14.0326 90.4912 14.007C90.2959 13.9814 90.1056 13.966 89.9103 13.966C89.4647 13.966 89.0691 14.0634 88.7186 14.2529C88.3681 14.4425 88.0977 14.7089 87.8924 15.0419C87.6871 15.375 87.587 15.7592 87.587 16.1896V22.2146H85.6992L85.7042 22.2095Z" fill="white"/>
    <path d="M99.8094 14.7497L98.097 15.0571C98.0269 14.8368 97.9117 14.6216 97.7565 14.4218C97.6012 14.222 97.3959 14.058 97.1356 13.9248C96.8752 13.7967 96.5497 13.7301 96.1541 13.7301C95.6184 13.7301 95.1727 13.8531 94.8172 14.0939C94.4567 14.3347 94.2814 14.6472 94.2814 15.0263C94.2814 15.3542 94.4016 15.6206 94.6419 15.8204C94.8823 16.0203 95.2679 16.1842 95.8036 16.3174L97.3459 16.676C98.2372 16.8861 98.9031 17.2089 99.3438 17.6444C99.7794 18.0798 99.9997 18.6485 99.9997 19.3453C99.9997 19.9345 99.8345 20.4622 99.499 20.9233C99.1635 21.3844 98.6978 21.743 98.102 22.0043C97.5061 22.2656 96.8151 22.3937 96.034 22.3937C94.9474 22.3937 94.0611 22.158 93.3751 21.6815C92.6891 21.2102 92.2685 20.5339 92.1133 19.6629L93.9409 19.3812C94.0561 19.8628 94.2864 20.2316 94.6419 20.4776C94.9975 20.7235 95.4581 20.8464 96.024 20.8464C96.6449 20.8464 97.1356 20.7132 97.5111 20.4519C97.8816 20.1907 98.0669 19.8679 98.0669 19.4836C98.0669 19.1762 97.9517 18.9149 97.7314 18.7049C97.5061 18.4948 97.1606 18.336 96.6999 18.2284L95.0575 17.8647C94.1512 17.6546 93.4853 17.3216 93.0496 16.8605C92.619 16.4045 92.4037 15.8204 92.4037 15.1185C92.4037 14.5345 92.5639 14.0273 92.8844 13.5918C93.2049 13.1563 93.6455 12.813 94.2113 12.5671C94.7771 12.3212 95.4231 12.1982 96.1491 12.1982C97.1956 12.1982 98.0218 12.4288 98.6277 12.8899C99.2286 13.351 99.6292 13.9658 99.8195 14.7343L99.8094 14.7497Z" fill="white"/>
    <path d="M68.8711 8.11578V1.61426H69.8375V4.43722H73.0221V1.61426H73.9885V8.11578H73.0221V5.28257H69.8375V8.11578H68.8711Z" fill="white"/>
    <path d="M77.3387 8.213C76.888 8.213 76.4975 8.11053 76.162 7.90048C75.8265 7.69042 75.5661 7.39839 75.3809 7.01926C75.1956 6.64014 75.1055 6.20465 75.1055 5.69744C75.1055 5.19023 75.1956 4.74962 75.3809 4.3705C75.5661 3.99137 75.8265 3.69934 76.162 3.48928C76.4975 3.27922 76.888 3.17676 77.3387 3.17676C77.7894 3.17676 78.1799 3.27922 78.5154 3.48928C78.8509 3.69934 79.1113 3.99137 79.2965 4.3705C79.4818 4.74962 79.5719 5.19023 79.5719 5.69744C79.5719 6.20465 79.4818 6.64014 79.2965 7.01926C79.1113 7.39839 78.8509 7.69042 78.5154 7.90048C78.1799 8.11053 77.7894 8.213 77.3387 8.213ZM77.3387 7.41888C77.6291 7.41888 77.8695 7.34203 78.0648 7.18321C78.255 7.02439 78.4002 6.81945 78.4904 6.55816C78.5805 6.29687 78.6306 6.00996 78.6306 5.69744C78.6306 5.38492 78.5855 5.09801 78.4904 4.83672C78.4002 4.57543 78.255 4.36537 78.0648 4.20655C77.8745 4.04773 77.6341 3.97088 77.3387 3.97088C77.0433 3.97088 76.8029 4.04773 76.6076 4.20655C76.4124 4.36537 76.2722 4.57543 76.182 4.83672C76.0919 5.09801 76.0418 5.38492 76.0418 5.69744C76.0418 6.00996 76.0869 6.29687 76.182 6.55816C76.2772 6.81945 76.4174 7.02439 76.6076 7.18321C76.7979 7.34203 77.0433 7.41888 77.3387 7.41888Z" fill="white"/>
    <path d="M81.5485 1.61426V8.11578H80.6172V1.61426H81.5485Z" fill="white"/>
    <path d="M83.2705 2.48504C83.1103 2.48504 82.9701 2.42868 82.8549 2.31597C82.7398 2.20325 82.6797 2.07005 82.6797 1.91635C82.6797 1.76265 82.7398 1.62432 82.8549 1.51673C82.9701 1.40401 83.1103 1.34766 83.2705 1.34766C83.4308 1.34766 83.571 1.40401 83.6862 1.51673C83.8013 1.62944 83.8614 1.76265 83.8614 1.91635C83.8614 2.07005 83.8013 2.20838 83.6862 2.31597C83.571 2.42356 83.4308 2.48504 83.2705 2.48504ZM82.7999 8.11046V3.23817H83.7312V8.11046H82.7999Z" fill="white"/>
    <path d="M86.7861 8.208C86.4005 8.208 86.055 8.10553 85.7496 7.90572C85.4492 7.70591 85.2088 7.41388 85.0386 7.03987C84.8683 6.66587 84.7832 6.21502 84.7832 5.68731C84.7832 5.15961 84.8683 4.70875 85.0436 4.33475C85.2188 3.96075 85.4542 3.67384 85.7596 3.47403C86.0651 3.27422 86.4056 3.17688 86.7911 3.17688C87.0865 3.17688 87.3269 3.22811 87.5122 3.32545C87.6974 3.4228 87.8376 3.54063 87.9378 3.67384C88.0379 3.80705 88.118 3.92488 88.1731 4.02735H88.2282V1.61426H89.1595V8.11578H88.2482V7.35752H88.1681C88.113 7.45999 88.0329 7.57782 87.9278 7.71103C87.8226 7.84424 87.6774 7.96208 87.4971 8.05942C87.3119 8.15676 87.0765 8.208 86.7861 8.208ZM86.9914 7.39851C87.2618 7.39851 87.4871 7.32678 87.6724 7.18333C87.8577 7.03987 87.9979 6.83494 88.098 6.57877C88.1931 6.32261 88.2432 6.02033 88.2432 5.67707C88.2432 5.3338 88.1931 5.04177 88.098 4.79073C88.0029 4.53968 87.8627 4.33987 87.6774 4.19642C87.4921 4.05297 87.2618 3.98124 86.9914 3.98124C86.721 3.98124 86.4757 4.05297 86.2904 4.20154C86.1051 4.35012 85.9599 4.54993 85.8698 4.8061C85.7746 5.06227 85.7296 5.34917 85.7296 5.67194C85.7296 5.99471 85.7796 6.29187 85.8748 6.55316C85.9699 6.81445 86.1101 7.01938 86.3004 7.16796C86.4907 7.32166 86.721 7.39338 86.9964 7.39338L86.9914 7.39851Z" fill="white"/>
    <path d="M91.8841 8.22325C91.5786 8.22325 91.3032 8.16689 91.0579 8.04905C90.8125 7.93122 90.6172 7.76727 90.477 7.54697C90.3368 7.32666 90.2617 7.05513 90.2617 6.73748C90.2617 6.46082 90.3118 6.23539 90.417 6.05607C90.5221 5.87676 90.6623 5.73843 90.8376 5.63596C91.0128 5.53349 91.2131 5.45152 91.4284 5.40029C91.6487 5.34905 91.8691 5.30807 92.0944 5.27733C92.3798 5.24146 92.6151 5.21585 92.7954 5.19535C92.9757 5.17486 93.1058 5.139 93.186 5.08776C93.2661 5.03653 93.3061 4.95456 93.3061 4.84184V4.82135C93.3061 4.54469 93.231 4.32951 93.0758 4.17581C92.9206 4.02211 92.6953 3.94526 92.3948 3.94526C92.0944 3.94526 91.834 4.01699 91.6537 4.15532C91.4735 4.29365 91.3483 4.45247 91.2782 4.62154L90.4019 4.41661C90.5071 4.11945 90.6573 3.87866 90.8576 3.69934C91.0579 3.5149 91.2882 3.38169 91.5536 3.29972C91.814 3.21774 92.0894 3.17676 92.3798 3.17676C92.5701 3.17676 92.7754 3.19725 92.9907 3.24336C93.206 3.28947 93.4063 3.37144 93.5966 3.49441C93.7868 3.61737 93.9371 3.78644 94.0622 4.01186C94.1824 4.23729 94.2425 4.5242 94.2425 4.87771V8.11566H93.3312V7.44962H93.2961C93.236 7.57258 93.1459 7.69042 93.0257 7.81338C92.9056 7.93634 92.7503 8.02856 92.5601 8.11053C92.3698 8.18738 92.1445 8.22837 91.8791 8.22837L91.8841 8.22325ZM92.0894 7.45987C92.3498 7.45987 92.5701 7.40864 92.7503 7.30617C92.9356 7.2037 93.0758 7.06537 93.1709 6.8963C93.2661 6.72723 93.3162 6.54792 93.3162 6.35323V5.72306C93.2811 5.75892 93.221 5.78966 93.1259 5.81528C93.0307 5.84602 92.9256 5.86651 92.8004 5.887C92.6802 5.9075 92.5601 5.92287 92.4499 5.94336C92.3347 5.95873 92.2396 5.9741 92.1645 5.98435C91.9842 6.00996 91.819 6.04583 91.6688 6.10219C91.5185 6.15854 91.4034 6.23539 91.3132 6.33786C91.2231 6.44033 91.1831 6.57866 91.1831 6.74773C91.1831 6.9834 91.2682 7.15759 91.4384 7.28055C91.6087 7.39839 91.824 7.45987 92.0894 7.45987Z" fill="white"/>
    <path d="M95.9106 9.93961C95.7704 9.93961 95.6452 9.92936 95.5301 9.90887C95.4149 9.88838 95.3298 9.86276 95.2747 9.83714L95.5 9.05839C95.6703 9.10451 95.8205 9.125 95.9557 9.11987C96.0909 9.11475 96.206 9.06352 96.3112 8.96617C96.4163 8.86883 96.5065 8.71513 96.5866 8.49995L96.7018 8.17718L94.9492 3.23828H95.9457L97.1574 7.01931H97.2075L98.4193 3.23828H99.4207L97.4428 8.76124C97.3527 9.01741 97.2325 9.23259 97.0923 9.40678C96.9521 9.58098 96.7819 9.71418 96.5866 9.8064C96.3913 9.8935 96.166 9.93961 95.9056 9.93961H95.9106Z" fill="white"/>
  </g>
  <defs>
    <clipPath id="clip0_99_36994">
      <rect width="100" height="27" fill="white"/>
    </clipPath>
  </defs>
</svg>