<svg xmlns="http://www.w3.org/2000/svg" width="33" height="33" viewBox="0 0 33 33" fill="none">
    <g clip-path="url(#clip0_610_2564)">
        <mask id="mask0_610_2564" style="mask-type:luminance" maskUnits="userSpaceOnUse" x="0" y="0"
            width="33" height="33">
            <path d="M32.6729 0.648438H0.672852V32.6484H32.6729V0.648438Z" fill="white" />
        </mask>
        <g mask="url(#mask0_610_2564)">
            <path
                d="M28.5727 4.09744C27.8852 4.09461 27.2119 4.29291 26.6358 4.66794C26.0596 5.04296 25.6057 5.57834 25.33 6.2081C25.0543 6.83786 24.9688 7.53451 25.084 8.21225C25.1993 8.88999 25.5103 9.51922 25.9787 10.0224L21.6217 17.3064C21.3357 17.2288 21.041 17.1875 20.7447 17.1834C20.1562 17.1875 19.5783 17.3402 19.0647 17.6274L15.6927 14.2554C15.9799 13.7422 16.1326 13.1646 16.1367 12.5764C16.14 11.9993 16.002 11.4302 15.7348 10.9187C15.4677 10.4071 15.0794 9.96869 14.604 9.6416C14.1285 9.31451 13.5803 9.10871 13.007 9.04211C12.4338 8.97552 11.8529 9.05014 11.3151 9.25952C10.7774 9.4689 10.2989 9.80667 9.92164 10.2433C9.54433 10.68 9.27957 11.2024 9.15044 11.7648C9.02131 12.3273 9.03175 12.9128 9.18082 13.4704C9.32989 14.0279 9.61306 14.5405 10.0057 14.9634L5.64769 22.2474C5.3618 22.1692 5.06708 22.1279 4.7707 22.1245C3.95022 22.1176 3.15244 22.3937 2.51177 22.9063C1.8711 23.4189 1.42667 24.1367 1.25336 24.9387C1.08005 25.7407 1.18844 26.5779 1.56028 27.3093C1.93212 28.0407 2.54469 28.6216 3.29479 28.9541C4.04489 29.2867 4.88667 29.3505 5.67835 29.1349C6.47002 28.9194 7.1632 28.4375 7.64112 27.7706C8.11903 27.1036 8.35248 26.2923 8.30213 25.4734C8.25178 24.6544 7.92071 23.8778 7.36469 23.2744L11.7217 15.9904C12.0077 16.0681 12.3023 16.1094 12.5987 16.1134C13.1871 16.1094 13.765 15.9566 14.2787 15.6694L17.6507 19.0414C17.3635 19.5547 17.2108 20.1323 17.2067 20.7204C17.2033 21.2976 17.3411 21.8668 17.6081 22.3784C17.8752 22.8901 18.2633 23.3286 18.7388 23.6559C19.2142 23.9831 19.7625 24.189 20.3357 24.2557C20.909 24.3224 21.4899 24.2478 22.0278 24.0385C22.5656 23.8292 23.0441 23.4915 23.4215 23.0548C23.7989 22.6181 24.0637 22.0958 24.1929 21.5333C24.3221 20.9708 24.3116 20.3852 24.1626 19.8276C24.0135 19.2701 23.7303 18.7574 23.3377 18.3344L27.6957 11.0494C27.9816 11.1277 28.2763 11.169 28.5727 11.1724C29.5109 11.1724 30.4107 10.7997 31.0741 10.1363C31.7375 9.47291 32.1102 8.57315 32.1102 7.63495C32.1102 6.69674 31.7375 5.79695 31.0741 5.13354C30.4107 4.47013 29.5109 4.09744 28.5727 4.09744ZM4.77269 27.1974C4.46875 27.1973 4.17168 27.1069 3.91906 26.9379C3.66643 26.7689 3.46958 26.5288 3.3534 26.2479C3.23722 25.9671 3.20693 25.6581 3.26635 25.36C3.32577 25.0619 3.47222 24.7881 3.68721 24.5733C3.90221 24.3584 4.17608 24.2121 4.4742 24.1529C4.77232 24.0937 5.08132 24.1242 5.36211 24.2405C5.6429 24.3569 5.88289 24.5539 6.05173 24.8066C6.22058 25.0594 6.31069 25.3565 6.31069 25.6604C6.31042 26.0683 6.14833 26.4595 5.85999 26.748C5.57165 27.0365 5.18061 27.1989 4.77269 27.1994V27.1974ZM11.0637 12.5744C11.0637 12.2704 11.1538 11.9733 11.3227 11.7205C11.4916 11.4678 11.7317 11.2708 12.0125 11.1544C12.2934 11.0381 12.6024 11.0076 12.9005 11.067C13.1987 11.1263 13.4726 11.2727 13.6875 11.4876C13.9025 11.7026 14.0489 11.9764 14.1082 12.2746C14.1675 12.5727 14.137 12.8818 14.0207 13.1626C13.9044 13.4435 13.7074 13.6835 13.4546 13.8524C13.2018 14.0213 12.9047 14.1114 12.6007 14.1114C12.1935 14.1109 11.803 13.9491 11.5148 13.6614C11.2266 13.3738 11.064 12.9837 11.0627 12.5764L11.0637 12.5744ZM20.7467 22.2564C20.3389 22.2564 19.9478 22.0945 19.6595 21.8061C19.3712 21.5178 19.2092 21.1267 19.2092 20.7189C19.2092 20.3112 19.3712 19.9201 19.6595 19.6318C19.9478 19.3434 20.3389 19.1814 20.7467 19.1814C21.0207 19.1829 21.2892 19.2586 21.5237 19.4005L21.5317 19.4074L21.5557 19.4174C21.8398 19.593 22.0589 19.8565 22.1796 20.1679C22.3004 20.4793 22.3162 20.8216 22.2247 21.1428C22.1331 21.464 21.9393 21.7466 21.6725 21.9476C21.4058 22.1486 21.0807 22.257 20.7467 22.2564ZM28.5747 9.17044C28.3003 9.16914 28.0314 9.09346 27.7967 8.95145L27.7897 8.94543L27.7757 8.94043C27.4618 8.74564 27.2291 8.4439 27.1203 8.09088C27.0116 7.73786 27.0342 7.35743 27.184 7.01981C27.3339 6.68218 27.6008 6.41016 27.9356 6.25397C28.2703 6.09778 28.6502 6.06795 29.0053 6.17001C29.3603 6.27208 29.6663 6.49914 29.867 6.80926C30.0677 7.11939 30.1494 7.49164 30.0971 7.8573C30.0447 8.22296 29.8618 8.55732 29.5822 8.79868C29.3026 9.04003 28.9451 9.17208 28.5757 9.17044H28.5747Z"
                fill="black" />
        </g>
    </g>
    <defs>
        <clipPath id="clip0_610_2564">
            <rect width="32" height="32" fill="white" transform="translate(0.672852 0.648438)" />
        </clipPath>
    </defs>
</svg>