<svg xmlns="http://www.w3.org/2000/svg" width="38" height="42" viewBox="0 0 38 42" fill="none">
    <path
        d="M36.8084 37.3821C33.6276 32.1647 30.4812 26.9258 27.2641 21.7318C26.7474 20.9027 26.7359 20.3306 27.2451 19.4938C30.4068 14.3289 33.4999 9.12117 36.6253 3.93292C37.9335 1.76109 37.3652 0.30348 34.9396 0.190607C28.0002 -0.12855 21.057 0.0368671 14.1157 0.0933034C12.5044 0.106926 11.4041 0.955417 10.6356 2.22037C7.21451 7.86984 3.87544 13.5699 0.442941 19.2116C-0.207327 20.2839 -0.0967245 21.1927 0.482987 22.1482C3.85256 27.6984 7.36134 33.163 10.586 38.8047C11.4231 40.2701 12.6245 41.0758 14.4742 40.996C17.6913 40.852 20.9216 40.9551 24.1501 40.9551V40.9143C27.758 40.9143 31.3679 40.9746 34.9758 40.8948C37.205 40.8442 37.964 39.2698 36.8103 37.3821H36.8084ZM13.9537 33.7624C13.3682 34.7024 12.7542 34.8483 12.1268 33.815C9.56386 29.5822 7.01237 25.3437 4.4399 21.1187C4.11381 20.5855 4.31595 20.1788 4.5772 19.7409C7.46241 14.9283 10.3381 10.1078 13.2443 5.3049C13.7801 4.41555 14.5486 3.92319 15.689 3.96016C18.0917 4.03995 20.4964 3.98352 22.8991 3.98741C25.2485 3.9913 27.5998 3.96795 29.9491 3.99714C31.7397 4.02049 31.9438 4.37079 31.0132 5.89846C28.7554 9.61547 26.4422 13.2936 24.1749 17.0028C21.364 21.5975 18.5818 26.2136 15.7805 30.818C15.1798 31.8027 14.562 32.7797 13.9537 33.7624ZM16.6711 36.8625C18.3873 33.9979 19.8976 31.4622 21.4193 28.9264C22.1268 27.7471 22.8648 26.5892 23.5589 25.404C23.9537 24.7346 24.398 24.4524 24.8843 25.2405C27.0525 28.7474 29.1997 32.2698 31.3297 35.8C31.4842 36.0588 31.4709 36.4227 31.5624 36.8625H16.673H16.6711Z"
        fill="#CD264F" />
</svg>