<svg width="34" height="34" viewBox="0 0 34 34" fill="none" xmlns="http://www.w3.org/2000/svg">
    <g id="Frame">
        <g id="SVGRepo_iconCarrier">
            <path id="Vector"
                d="M11.0068 6.48842C12.1508 5.30936 13.5241 4.37687 15.0419 3.74829C16.5597 3.11973 18.19 2.80826 19.8326 2.83331C26.0943 2.83331 31.166 7.22503 31.166 12.6367C31.1372 14.1413 30.7446 15.6164 30.0219 16.9364C29.2991 18.2561 28.2675 19.3814 27.0153 20.2158V23.7291"
                stroke="black" stroke-width="1.5" stroke-linecap="round" stroke-linejoin="round" />
            <path id="Vector_2"
                d="M22.6663 19.3233C22.6663 14.5775 18.2322 10.7384 12.7497 10.7384C7.26717 10.7384 2.83301 14.5775 2.83301 19.3233C2.86051 20.6385 3.20456 21.9278 3.83585 23.0818C4.46713 24.2359 5.36716 25.2209 6.45976 25.9534V29.0275C6.4583 29.4465 6.57994 29.8569 6.80961 30.2074C7.03926 30.5579 7.36679 30.8333 7.75156 30.9992C8.13634 31.1652 8.56147 31.2145 8.97403 31.141C9.38659 31.0676 9.76834 30.8745 10.0722 30.5859L12.9055 27.8943C18.3313 27.7951 22.6663 23.9983 22.6663 19.3233Z"
                stroke="black" stroke-width="1.5" stroke-linecap="round" stroke-linejoin="round" />
        </g>
    </g>
</svg>