<svg xmlns="http://www.w3.org/2000/svg" width="23" height="24" viewBox="0 0 23 24" fill="none">
  <path d="M21.1199 23.0946L12.7444 14.7191C12.1023 15.2874 11.3535 15.7253 10.4981 16.0328C9.64263 16.3403 8.75719 16.494 7.84176 16.494C5.65008 16.494 3.7952 15.7355 2.27712 14.2185C0.75904 12.7014 0 10.862 0 8.70021C0 6.53839 0.758513 4.6983 2.27554 3.17991C3.79256 1.66153 5.63435 0.902344 7.8009 0.902344C9.96747 0.902344 11.8096 1.66106 13.3274 3.17849C14.8452 4.69591 15.6041 6.53592 15.6041 8.69853C15.6041 9.60272 15.4493 10.483 15.1399 11.3394C14.8304 12.1958 14.3827 12.9716 13.7969 13.6666L22.1923 22.0099L21.1199 23.0946ZM7.82191 15.0295C9.58508 15.0295 11.0788 14.4151 12.3031 13.1863C13.5274 11.9575 14.1395 10.4615 14.1395 8.69818C14.1395 6.93488 13.5274 5.43884 12.3031 4.21006C11.0788 2.9813 9.58508 2.36692 7.82191 2.36692C6.04771 2.36692 4.5446 2.9813 3.31259 4.21006C2.08058 5.43884 1.46458 6.93488 1.46458 8.69818C1.46458 10.4615 2.08058 11.9575 3.31259 13.1863C4.5446 14.4151 6.04771 15.0295 7.82191 15.0295Z" fill="black"/>
</svg>