<svg xmlns="http://www.w3.org/2000/svg" width="24" height="24" viewBox="0 0 24 24" fill="none">
  <g clip-path="url(#clip0_246_16035)">
    <path fill-rule="evenodd" clip-rule="evenodd" d="M23 3C23 1.34315 21.6569 0 20 0H4C2.34315 0 1 1.34315 1 3V13C1 14.6569 2.34315 16 4 16H5C5.55228 16 6 15.5523 6 15C6 14.4477 5.55228 14 5 14H4C3.44772 14 3 13.5523 3 13V7H21V13C21 13.5523 20.5523 14 20 14H19C18.4477 14 18 14.4477 18 15C18 15.5523 18.4477 16 19 16H20C21.6569 16 23 14.6569 23 13V3ZM21 5V3C21 2.44772 20.5523 2 20 2H4C3.44772 2 3 2.44771 3 3V5H21Z" fill="white"/>
    <path d="M23.2 3C23.2 1.2327 21.7674 -0.2 20 -0.2H4C2.23269 -0.2 0.8 1.23269 0.8 3V13C0.8 14.7674 2.2327 16.2 4 16.2H5C5.66273 16.2 6.2 15.6628 6.2 15C6.2 14.3372 5.66273 13.8 5 13.8H4C3.55817 13.8 3.2 13.4418 3.2 13V7.2H20.8V13C20.8 13.4418 20.4418 13.8 20 13.8H19C18.3372 13.8 17.8 14.3372 17.8 15C17.8 15.6628 18.3372 16.2 19 16.2H20C21.7674 16.2 23.2 14.7674 23.2 13V3ZM20.8 3V4.8H3.2V3C3.2 2.55817 3.55818 2.2 4 2.2H20C20.4418 2.2 20.8 2.55817 20.8 3Z" stroke="white" stroke-opacity="0.05" stroke-width="0.4"/>
    <path d="M13 20.9999C13 21.5522 12.5523 21.9999 12 21.9999C11.4477 21.9999 11 21.5522 11 20.9999V15.4068L9.70713 16.6995C9.31656 17.0902 8.68344 17.0902 8.29287 16.6995C7.90237 16.3092 7.90237 15.6759 8.29287 15.2855L11.2924 12.2922C11.683 11.9023 12.3156 11.9027 12.7059 12.2929L15.705 15.2921C16.0956 15.6827 16.0956 16.3158 15.705 16.7064C15.3145 17.0968 14.6813 17.0968 14.2908 16.7064L13 15.4156V20.9999Z" fill="white"/>
    <path d="M15.5636 16.5649C15.5636 16.565 15.5636 16.565 15.5636 16.565C15.2512 16.8773 14.7446 16.8773 14.4322 16.565C14.4322 16.565 14.4322 16.565 14.4322 16.5649L13.1414 15.2742L12.8 14.9327V15.4156V20.9999C12.8 21.4417 12.4418 21.7999 12 21.7999C11.5581 21.7999 11.2 21.4417 11.2 20.9999V15.4068V14.924L10.8586 15.2654L9.56571 16.5581L9.56568 16.5581C9.25322 16.8707 8.74678 16.8707 8.43432 16.5581L8.43426 16.558C8.12197 16.2459 8.1219 15.7394 8.43415 15.4271L8.43428 15.4269L11.4337 12.4338L11.4337 12.4337C11.7461 12.1219 12.2522 12.1221 12.5645 12.4343C12.5645 12.4343 12.5645 12.4343 12.5645 12.4343L15.5636 15.4335L15.705 15.2921M15.5636 16.5649L15.705 16.7064C16.0956 16.3158 16.0956 15.6827 15.705 15.2921M15.5636 16.5649C15.8761 16.2525 15.8761 15.746 15.5636 15.4335L15.705 15.2921M15.5636 16.5649L15.705 15.2921" stroke="white" stroke-opacity="0.3" stroke-width="0.4"/>
  </g>
  <defs>
    <clipPath id="clip0_246_16035">
      <rect width="24" height="24" fill="white"/>
    </clipPath>
  </defs>
</svg>